M48
; DRILL file {KiCad 7.0.10} date Sun 04 Feb 2024 11:07:43 PM CET
; FORMAT={-:-/ absolute / metric / decimal}
; #@! TF.CreationDate,2024-02-04T23:07:43+01:00
; #@! TF.GenerationSoftware,Kicad,Pcbnew,7.0.10
; #@! TF.FileFunction,Plated,1,2,PTH
FMAT,2
METRIC
; #@! TA.AperFunction,Plated,PTH,ComponentDrill
T1C0.200
; #@! TA.AperFunction,Plated,PTH,ViaDrill
T2C0.400
; #@! TA.AperFunction,Plated,PTH,ComponentDrill
T3C0.950
; #@! TA.AperFunction,Plated,PTH,ComponentDrill
T4C1.000
; #@! TA.AperFunction,Plated,PTH,ComponentDrill
T5C3.200
%
G90
G05
T1
X82.42Y-100.935
X82.42Y-102.335
X83.42Y-100.935
X83.42Y-102.335
X84.42Y-100.935
X84.42Y-102.335
T2
X72.101Y-71.549
X77.5Y-103.23
X78.14Y-69.85
X78.22Y-99.24
X78.53Y-59.04
X78.72Y-65.75
X78.87Y-61.23
X78.9Y-82.38
X78.92Y-95.43
X78.98Y-73.81
X79.02Y-79.55
X79.02Y-85.51
X79.15Y-87.79
X79.17Y-91.96
X79.33Y-96.64
X79.78Y-57.11
X79.8Y-55.44
X80.91Y-108.18
X81.47Y-85.06
X81.54Y-79.55
X81.93Y-71.13
X82.56Y-124.74
X82.62Y-117.67
X82.73Y-54.45
X82.8Y-73.69
X83.88Y-59.64
X84.49Y-86.84
X84.62Y-88.3
X84.645Y-67.885
X84.88Y-124.59
X84.96Y-117.56
X85.18Y-67.04
X85.319Y-65.52
X85.37Y-61.38
X85.45Y-109.245
X86.24Y-64.03
X86.369Y-61.339
X86.73Y-83.35
X87.27Y-114.18
X87.33Y-66.97
X87.42Y-73.97
X87.53Y-50.77
X87.54Y-96.38
X87.55Y-92.05
X87.58Y-107.34
X88.287Y-64.508
X88.4Y-58.32
X88.41Y-53.86
X89.74Y-113.54
X89.81Y-61.58
X90.218Y-64.535
X90.28Y-52.73
X90.47Y-62.63
X90.604Y-63.62
X91.021Y-67.09
X91.04Y-73.78
X91.071Y-65.894
X91.16Y-83.03
X91.164Y-64.454
X91.175Y-97.345
X91.5Y-90.89
X91.86Y-55.09
X92.07Y-60.4
X92.68Y-51.88
X92.87Y-121.47
X93.0Y-97.32
X93.27Y-69.82
X93.33Y-72.45
X93.34Y-57.02
X93.67Y-74.66
X93.74Y-67.75
X93.99Y-62.15
X94.05Y-109.56
X94.27Y-101.97
X94.34Y-59.027
X94.36Y-97.52
X94.4Y-75.54
X94.487Y-64.833
X94.6Y-99.71
X94.678Y-96.399
X94.685Y-115.212
X94.75Y-51.125
X94.92Y-106.72
X95.025Y-104.47
X95.626Y-96.253
X95.76Y-53.1
X96.33Y-97.16
X96.74Y-75.12
X96.89Y-104.58
X96.91Y-106.9
X96.99Y-99.47
X97.21Y-115.08
X97.38Y-122.1
X97.43Y-96.29
X98.25Y-53.07
X98.47Y-81.57
X99.0Y-120.57
X99.45Y-117.76
T3
X71.45Y-58.16
X71.45Y-60.66
X71.45Y-63.16
X71.45Y-65.66
X71.45Y-68.16
X71.465Y-74.63
X71.465Y-77.13
X71.465Y-79.63
X71.51Y-87.91
X71.51Y-90.41
X71.51Y-92.91
X76.32Y-122.97
X78.82Y-122.97
X81.32Y-122.97
X83.82Y-122.97
X90.18Y-124.01
X92.68Y-124.01
X95.18Y-124.01
X97.68Y-124.01
T4
X77.6Y-49.3
X77.6Y-51.84
X80.14Y-49.3
X80.14Y-51.84
X82.68Y-49.3
X82.68Y-51.84
X88.58Y-49.01
X91.12Y-49.01
X93.66Y-49.01
X95.56Y-55.81
X95.56Y-58.35
X95.56Y-60.89
X95.56Y-63.43
X95.56Y-65.97
X95.56Y-68.51
X95.56Y-71.05
X95.56Y-73.59
X96.2Y-49.01
X98.1Y-55.81
X98.1Y-58.35
X98.1Y-60.89
X98.1Y-63.43
X98.1Y-65.97
X98.1Y-68.51
X98.1Y-71.05
X98.1Y-73.59
X98.37Y-98.2
X98.37Y-100.74
X98.37Y-103.28
X98.37Y-105.82
X98.37Y-108.36
X98.37Y-110.9
X98.74Y-49.01
T5
X70.0Y-50.0
X70.0Y-124.0
X104.0Y-50.0
X104.0Y-124.0
M30
