G04 #@! TF.GenerationSoftware,KiCad,Pcbnew,7.0.10*
G04 #@! TF.CreationDate,2024-02-04T23:07:42+01:00*
G04 #@! TF.ProjectId,splitflappcb,73706c69-7466-46c6-9170-7063622e6b69,rev?*
G04 #@! TF.SameCoordinates,Original*
G04 #@! TF.FileFunction,Copper,L2,Bot*
G04 #@! TF.FilePolarity,Positive*
%FSLAX46Y46*%
G04 Gerber Fmt 4.6, Leading zero omitted, Abs format (unit mm)*
G04 Created by KiCad (PCBNEW 7.0.10) date 2024-02-04 23:07:42*
%MOMM*%
%LPD*%
G01*
G04 APERTURE LIST*
G04 Aperture macros list*
%AMRoundRect*
0 Rectangle with rounded corners*
0 $1 Rounding radius*
0 $2 $3 $4 $5 $6 $7 $8 $9 X,Y pos of 4 corners*
0 Add a 4 corners polygon primitive as box body*
4,1,4,$2,$3,$4,$5,$6,$7,$8,$9,$2,$3,0*
0 Add four circle primitives for the rounded corners*
1,1,$1+$1,$2,$3*
1,1,$1+$1,$4,$5*
1,1,$1+$1,$6,$7*
1,1,$1+$1,$8,$9*
0 Add four rect primitives between the rounded corners*
20,1,$1+$1,$2,$3,$4,$5,0*
20,1,$1+$1,$4,$5,$6,$7,0*
20,1,$1+$1,$6,$7,$8,$9,0*
20,1,$1+$1,$8,$9,$2,$3,0*%
G04 Aperture macros list end*
G04 #@! TA.AperFunction,ComponentPad*
%ADD10C,0.500000*%
G04 #@! TD*
G04 #@! TA.AperFunction,SMDPad,CuDef*
%ADD11R,2.500000X1.900000*%
G04 #@! TD*
G04 #@! TA.AperFunction,ComponentPad*
%ADD12C,5.600000*%
G04 #@! TD*
G04 #@! TA.AperFunction,ComponentPad*
%ADD13R,1.700000X1.700000*%
G04 #@! TD*
G04 #@! TA.AperFunction,ComponentPad*
%ADD14O,1.700000X1.700000*%
G04 #@! TD*
G04 #@! TA.AperFunction,ComponentPad*
%ADD15RoundRect,0.250000X0.600000X0.725000X-0.600000X0.725000X-0.600000X-0.725000X0.600000X-0.725000X0*%
G04 #@! TD*
G04 #@! TA.AperFunction,ComponentPad*
%ADD16O,1.700000X1.950000*%
G04 #@! TD*
G04 #@! TA.AperFunction,ComponentPad*
%ADD17RoundRect,0.250000X-0.600000X-0.725000X0.600000X-0.725000X0.600000X0.725000X-0.600000X0.725000X0*%
G04 #@! TD*
G04 #@! TA.AperFunction,ComponentPad*
%ADD18RoundRect,0.250000X0.725000X-0.600000X0.725000X0.600000X-0.725000X0.600000X-0.725000X-0.600000X0*%
G04 #@! TD*
G04 #@! TA.AperFunction,ComponentPad*
%ADD19O,1.950000X1.700000*%
G04 #@! TD*
G04 #@! TA.AperFunction,ViaPad*
%ADD20C,0.800000*%
G04 #@! TD*
G04 #@! TA.AperFunction,Conductor*
%ADD21C,0.250000*%
G04 #@! TD*
G04 #@! TA.AperFunction,Conductor*
%ADD22C,0.800000*%
G04 #@! TD*
G04 #@! TA.AperFunction,Conductor*
%ADD23C,0.400000*%
G04 #@! TD*
G04 APERTURE END LIST*
D10*
X84420000Y-100935000D03*
X83420000Y-100935000D03*
X82420000Y-100935000D03*
D11*
X83420000Y-101635000D03*
D10*
X84420000Y-102335000D03*
X83420000Y-102335000D03*
X82420000Y-102335000D03*
D12*
X104000000Y-50000000D03*
D13*
X98740000Y-49010000D03*
D14*
X96200000Y-49010000D03*
X93660000Y-49010000D03*
X91120000Y-49010000D03*
X88580000Y-49010000D03*
D15*
X97680000Y-124010000D03*
D16*
X95180000Y-124010000D03*
X92680000Y-124010000D03*
X90180000Y-124010000D03*
D12*
X70000000Y-50000000D03*
D17*
X76320000Y-122970000D03*
D16*
X78820000Y-122970000D03*
X81320000Y-122970000D03*
X83820000Y-122970000D03*
D13*
X98370000Y-98200000D03*
D14*
X98370000Y-100740000D03*
X98370000Y-103280000D03*
X98370000Y-105820000D03*
X98370000Y-108360000D03*
X98370000Y-110900000D03*
D13*
X77600000Y-51840000D03*
D14*
X77600000Y-49300000D03*
X80140000Y-51840000D03*
X80140000Y-49300000D03*
X82680000Y-51840000D03*
X82680000Y-49300000D03*
D12*
X104000000Y-124000000D03*
D13*
X95560000Y-55810000D03*
D14*
X98100000Y-55810000D03*
X95560000Y-58350000D03*
X98100000Y-58350000D03*
X95560000Y-60890000D03*
X98100000Y-60890000D03*
X95560000Y-63430000D03*
X98100000Y-63430000D03*
X95560000Y-65970000D03*
X98100000Y-65970000D03*
X95560000Y-68510000D03*
X98100000Y-68510000D03*
X95560000Y-71050000D03*
X98100000Y-71050000D03*
X95560000Y-73590000D03*
X98100000Y-73590000D03*
D12*
X70000000Y-124000000D03*
D18*
X71450000Y-68160000D03*
D19*
X71450000Y-65660000D03*
X71450000Y-63160000D03*
X71450000Y-60660000D03*
X71450000Y-58160000D03*
D18*
X71465000Y-79630000D03*
D19*
X71465000Y-77130000D03*
X71465000Y-74630000D03*
D18*
X71510000Y-92910000D03*
D19*
X71510000Y-90410000D03*
X71510000Y-87910000D03*
D20*
X78530000Y-59040000D03*
X87270000Y-114180000D03*
X85450000Y-109245000D03*
X95626092Y-96252670D03*
X91163682Y-64453813D03*
X94678444Y-96399500D03*
X90217628Y-64534663D03*
X86368656Y-61339500D03*
X85370000Y-61380000D03*
X85179863Y-67040500D03*
X84645115Y-67884922D03*
X85319500Y-65520000D03*
X94487300Y-64832700D03*
X94400000Y-75540000D03*
X98470000Y-81570000D03*
X87330000Y-66970000D03*
X84490000Y-86840000D03*
X91021441Y-67090500D03*
X92680000Y-51880000D03*
X90604125Y-63620462D03*
X90470000Y-62630000D03*
X94750401Y-51125001D03*
X91174822Y-97344822D03*
X95025500Y-104470000D03*
X94270000Y-101970000D03*
X79150000Y-87790000D03*
X79020000Y-79550000D03*
X79780000Y-57110000D03*
X78720000Y-65750000D03*
X98250000Y-53070000D03*
X78900000Y-82380000D03*
X78870000Y-61230000D03*
X87540000Y-96380000D03*
X84960000Y-117560000D03*
X93670000Y-74660000D03*
X87580000Y-107340000D03*
X81470000Y-85060000D03*
X96330000Y-97160000D03*
X79020000Y-85510000D03*
X90280000Y-52730000D03*
X91500000Y-90890000D03*
X93740000Y-67750000D03*
X95760000Y-53100000D03*
X97430000Y-96290000D03*
X81930000Y-71130000D03*
X72100517Y-71548614D03*
X92070000Y-60400000D03*
X94050000Y-109560000D03*
X93000000Y-97320000D03*
X81540000Y-79550000D03*
X82800000Y-73690000D03*
X96890000Y-104580000D03*
X93270000Y-69820000D03*
X97210000Y-115080000D03*
X87550000Y-92050000D03*
X91160000Y-83030000D03*
X93990000Y-62150000D03*
X87530000Y-50770000D03*
X86240000Y-64030000D03*
X97380000Y-122100000D03*
X77500000Y-103230000D03*
X78140000Y-69850000D03*
X93330000Y-72450000D03*
X92870000Y-121470000D03*
X99000000Y-120570000D03*
X88400000Y-58320000D03*
X84880000Y-124590000D03*
X78920000Y-95430000D03*
X79330000Y-96640000D03*
X94920000Y-106720000D03*
X84620000Y-88300000D03*
X91071095Y-65894500D03*
X83880000Y-59640000D03*
X82620000Y-117670000D03*
X80910000Y-108180000D03*
X93340000Y-57020000D03*
X94360000Y-97520000D03*
X94340130Y-59026812D03*
X94600000Y-99710000D03*
X79170000Y-91960000D03*
X99450000Y-117760000D03*
X89740000Y-113540000D03*
X87420000Y-73970000D03*
X86730000Y-83350000D03*
X79800000Y-55440000D03*
X96910000Y-106900000D03*
X82730000Y-54450000D03*
X88286732Y-64507585D03*
X91860000Y-55090000D03*
X89810000Y-61580000D03*
X88410000Y-53860000D03*
X96990000Y-99470000D03*
X82560000Y-124740000D03*
X94685130Y-115212168D03*
X78980000Y-73810000D03*
X78220000Y-99240000D03*
X91040000Y-73780000D03*
X96740000Y-75120000D03*
D21*
X91174822Y-97344822D02*
X91174822Y-97584822D01*
X91174822Y-97584822D02*
X95300000Y-101710000D01*
X95300000Y-101710000D02*
X95300000Y-104195500D01*
X95300000Y-104195500D02*
X95025500Y-104470000D01*
D22*
X86540000Y-113450000D02*
X86540000Y-110335000D01*
D23*
X78530000Y-59040000D02*
X80510000Y-61020000D01*
D22*
X87270000Y-114180000D02*
X86540000Y-113450000D01*
X80510000Y-101485000D02*
X80510000Y-104305000D01*
X80510000Y-104305000D02*
X85450000Y-109245000D01*
D23*
X80510000Y-61020000D02*
X80510000Y-95220000D01*
D22*
X80510000Y-95220000D02*
X78200000Y-92910000D01*
X78200000Y-92910000D02*
X71510000Y-92910000D01*
X86540000Y-110335000D02*
X85450000Y-109245000D01*
X80510000Y-95220000D02*
X80510000Y-101485000D01*
D21*
X95626092Y-97939696D02*
X96100000Y-98413604D01*
X90426023Y-65209663D02*
X90497223Y-65209663D01*
X96870000Y-124010000D02*
X96305000Y-124575000D01*
X79120000Y-125770000D02*
X76320000Y-122970000D01*
X96305000Y-124600551D02*
X95135551Y-125770000D01*
X96305000Y-124575000D02*
X96305000Y-124600551D01*
X96100000Y-98413604D02*
X96100000Y-122530000D01*
X89010000Y-89600000D02*
X89010000Y-66625686D01*
X90497223Y-65209663D02*
X91163682Y-64543204D01*
X97680000Y-124010000D02*
X96870000Y-124010000D01*
X95626092Y-96252670D02*
X95626092Y-97939696D01*
X96100000Y-122530000D02*
X97580000Y-124010000D01*
X95626092Y-96252670D02*
X95626092Y-96216092D01*
X97580000Y-124010000D02*
X97680000Y-124010000D01*
X95626092Y-96216092D02*
X89010000Y-89600000D01*
X89010000Y-66625686D02*
X90426023Y-65209663D01*
X95135551Y-125770000D02*
X79120000Y-125770000D01*
X91163682Y-64543204D02*
X91163682Y-64453813D01*
X95180000Y-124440000D02*
X94250000Y-125370000D01*
X88002735Y-125370000D02*
X84303982Y-121671247D01*
X95700000Y-98579290D02*
X95700000Y-123490000D01*
X95226092Y-98105382D02*
X95700000Y-98579290D01*
X94678444Y-96399500D02*
X94769500Y-96399500D01*
X90217628Y-64852372D02*
X90217628Y-64534663D01*
X88610000Y-66460000D02*
X90217628Y-64852372D01*
X80118753Y-121671247D02*
X78820000Y-122970000D01*
X94678444Y-96399500D02*
X94678444Y-95834130D01*
X94250000Y-125370000D02*
X88002735Y-125370000D01*
X95180000Y-124010000D02*
X95180000Y-124440000D01*
X84303982Y-121671247D02*
X80118753Y-121671247D01*
X94769500Y-96399500D02*
X95226092Y-96856092D01*
X95226092Y-96856092D02*
X95226092Y-98105382D01*
X88610000Y-89765686D02*
X88610000Y-66460000D01*
X95700000Y-123490000D02*
X95180000Y-124010000D01*
X94678444Y-95834130D02*
X88610000Y-89765686D01*
X94290000Y-57900000D02*
X95560000Y-56630000D01*
X95560000Y-56630000D02*
X95560000Y-55810000D01*
X86757565Y-61339500D02*
X90197065Y-57900000D01*
X86368656Y-61339500D02*
X86757565Y-61339500D01*
X90197065Y-57900000D02*
X94290000Y-57900000D01*
X86668961Y-62064500D02*
X90383461Y-58350000D01*
X90383461Y-58350000D02*
X95560000Y-58350000D01*
X85370000Y-61380000D02*
X86054500Y-62064500D01*
X86054500Y-62064500D02*
X86668961Y-62064500D01*
X81950000Y-56232792D02*
X77600000Y-51882792D01*
X85179863Y-67040500D02*
X84594500Y-66455137D01*
X77600000Y-51882792D02*
X77600000Y-51840000D01*
X81950000Y-62396396D02*
X81950000Y-56232792D01*
X84594500Y-65040896D02*
X81950000Y-62396396D01*
X84594500Y-66455137D02*
X84594500Y-65040896D01*
X85626406Y-67884922D02*
X86494500Y-67016828D01*
X82850000Y-55860000D02*
X80140000Y-53150000D01*
X86494500Y-65668104D02*
X82850000Y-62023604D01*
X80140000Y-53150000D02*
X80140000Y-51840000D01*
X84645115Y-67884922D02*
X85626406Y-67884922D01*
X82850000Y-62023604D02*
X82850000Y-55860000D01*
X86494500Y-67016828D02*
X86494500Y-65668104D01*
X78775000Y-52421396D02*
X78775000Y-50665000D01*
X82400000Y-56046396D02*
X78775000Y-52421396D01*
X78775000Y-50665000D02*
X80140000Y-49300000D01*
X85319500Y-65129500D02*
X82400000Y-62210000D01*
X82400000Y-62210000D02*
X82400000Y-56046396D01*
X85319500Y-65520000D02*
X85319500Y-65129500D01*
X96860000Y-52210000D02*
X93660000Y-49010000D01*
X96860000Y-63790054D02*
X96860000Y-52210000D01*
X90770000Y-51850000D02*
X82690000Y-51850000D01*
X96049710Y-64600344D02*
X96860000Y-63790054D01*
X96720000Y-74019344D02*
X95199344Y-75540000D01*
X94487300Y-64832700D02*
X96012044Y-64832700D01*
X93610000Y-49010000D02*
X90770000Y-51850000D01*
X98370000Y-103280000D02*
X99545000Y-102105000D01*
X94719656Y-64600344D02*
X96049710Y-64600344D01*
X99545000Y-102105000D02*
X99545000Y-82645000D01*
X96012044Y-64832700D02*
X96720000Y-65540656D01*
X95199344Y-75540000D02*
X94400000Y-75540000D01*
X93660000Y-49010000D02*
X93610000Y-49010000D01*
X94487300Y-64832700D02*
X94719656Y-64600344D01*
X96720000Y-65540656D02*
X96720000Y-74019344D01*
X99545000Y-82645000D02*
X98470000Y-81570000D01*
X82690000Y-51850000D02*
X82680000Y-51840000D01*
X84490000Y-69810000D02*
X87330000Y-66970000D01*
X84490000Y-86840000D02*
X84490000Y-69810000D01*
X91021441Y-69051441D02*
X95560000Y-73590000D01*
X91021441Y-67090500D02*
X91021441Y-69051441D01*
X89894695Y-63080000D02*
X90169695Y-63355000D01*
X84120000Y-60833604D02*
X84120000Y-61791701D01*
X92680000Y-52273604D02*
X84120000Y-60833604D01*
X92680000Y-51880000D02*
X92680000Y-52273604D01*
X84120000Y-61791701D02*
X85408299Y-63080000D01*
X85408299Y-63080000D02*
X89894695Y-63080000D01*
X90169695Y-63355000D02*
X90338663Y-63355000D01*
X90338663Y-63355000D02*
X90604125Y-63620462D01*
X84570000Y-61605305D02*
X85594695Y-62630000D01*
X93765908Y-52500103D02*
X93089897Y-52500103D01*
X93089897Y-52500103D02*
X84570000Y-61020000D01*
X94750401Y-51125001D02*
X94750401Y-51515610D01*
X84570000Y-61020000D02*
X84570000Y-61605305D01*
X94750401Y-51515610D02*
X93765908Y-52500103D01*
X85594695Y-62630000D02*
X90470000Y-62630000D01*
G04 #@! TA.AperFunction,Conductor*
G36*
X68865130Y-125134870D02*
G01*
X69055819Y-125297733D01*
X67847257Y-126506294D01*
X67860495Y-126518836D01*
X68145367Y-126735388D01*
X68145370Y-126735390D01*
X68201644Y-126769249D01*
X68248939Y-126820678D01*
X68260922Y-126889513D01*
X68233787Y-126953899D01*
X68176151Y-126993393D01*
X68137716Y-126999500D01*
X67124500Y-126999500D01*
X67057461Y-126979815D01*
X67011706Y-126927011D01*
X67000500Y-126875500D01*
X67000500Y-125860307D01*
X67020185Y-125793268D01*
X67072989Y-125747513D01*
X67142147Y-125737569D01*
X67205703Y-125766594D01*
X67227134Y-125790720D01*
X67369033Y-126000006D01*
X67369035Y-126000008D01*
X67496441Y-126150002D01*
X67496442Y-126150002D01*
X68702265Y-124944179D01*
X68865130Y-125134870D01*
G37*
G04 #@! TD.AperFunction*
G04 #@! TA.AperFunction,Conductor*
G36*
X92317327Y-124324258D02*
G01*
X92416279Y-124410000D01*
X92404000Y-124410000D01*
X92336961Y-124390315D01*
X92291206Y-124337511D01*
X92280000Y-124286000D01*
X92280000Y-124266175D01*
X92317327Y-124324258D01*
G37*
G04 #@! TD.AperFunction*
G04 #@! TA.AperFunction,Conductor*
G36*
X93080000Y-124286000D02*
G01*
X93060315Y-124353039D01*
X93007511Y-124398794D01*
X92956000Y-124410000D01*
X92943721Y-124410000D01*
X93042673Y-124324258D01*
X93080000Y-124266175D01*
X93080000Y-124286000D01*
G37*
G04 #@! TD.AperFunction*
G04 #@! TA.AperFunction,Conductor*
G36*
X80957327Y-122655742D02*
G01*
X80920000Y-122713824D01*
X80920000Y-122694000D01*
X80939685Y-122626961D01*
X80992489Y-122581206D01*
X81044000Y-122570000D01*
X81056279Y-122570000D01*
X80957327Y-122655742D01*
G37*
G04 #@! TD.AperFunction*
G04 #@! TA.AperFunction,Conductor*
G36*
X81663039Y-122589685D02*
G01*
X81708794Y-122642489D01*
X81720000Y-122694000D01*
X81720000Y-122713824D01*
X81682673Y-122655742D01*
X81583721Y-122570000D01*
X81596000Y-122570000D01*
X81663039Y-122589685D01*
G37*
G04 #@! TD.AperFunction*
G04 #@! TA.AperFunction,Conductor*
G36*
X98350000Y-73154498D02*
G01*
X98242315Y-73105320D01*
X98135763Y-73090000D01*
X98064237Y-73090000D01*
X97957685Y-73105320D01*
X97850000Y-73154498D01*
X97850000Y-71485501D01*
X97957685Y-71534680D01*
X98064237Y-71550000D01*
X98135763Y-71550000D01*
X98242315Y-71534680D01*
X98350000Y-71485501D01*
X98350000Y-73154498D01*
G37*
G04 #@! TD.AperFunction*
G04 #@! TA.AperFunction,Conductor*
G36*
X98350000Y-70614498D02*
G01*
X98242315Y-70565320D01*
X98135763Y-70550000D01*
X98064237Y-70550000D01*
X97957685Y-70565320D01*
X97850000Y-70614498D01*
X97850000Y-68945501D01*
X97957685Y-68994680D01*
X98064237Y-69010000D01*
X98135763Y-69010000D01*
X98242315Y-68994680D01*
X98350000Y-68945501D01*
X98350000Y-70614498D01*
G37*
G04 #@! TD.AperFunction*
G04 #@! TA.AperFunction,Conductor*
G36*
X98350000Y-68074498D02*
G01*
X98242315Y-68025320D01*
X98135763Y-68010000D01*
X98064237Y-68010000D01*
X97957685Y-68025320D01*
X97850000Y-68074498D01*
X97850000Y-66405501D01*
X97957685Y-66454680D01*
X98064237Y-66470000D01*
X98135763Y-66470000D01*
X98242315Y-66454680D01*
X98350000Y-66405501D01*
X98350000Y-68074498D01*
G37*
G04 #@! TD.AperFunction*
G04 #@! TA.AperFunction,Conductor*
G36*
X98350000Y-65534498D02*
G01*
X98242315Y-65485320D01*
X98135763Y-65470000D01*
X98064237Y-65470000D01*
X97957685Y-65485320D01*
X97850000Y-65534498D01*
X97850000Y-63865501D01*
X97957685Y-63914680D01*
X98064237Y-63930000D01*
X98135763Y-63930000D01*
X98242315Y-63914680D01*
X98350000Y-63865501D01*
X98350000Y-65534498D01*
G37*
G04 #@! TD.AperFunction*
G04 #@! TA.AperFunction,Conductor*
G36*
X98350000Y-62994498D02*
G01*
X98242315Y-62945320D01*
X98135763Y-62930000D01*
X98064237Y-62930000D01*
X97957685Y-62945320D01*
X97850000Y-62994498D01*
X97850000Y-61325501D01*
X97957685Y-61374680D01*
X98064237Y-61390000D01*
X98135763Y-61390000D01*
X98242315Y-61374680D01*
X98350000Y-61325501D01*
X98350000Y-62994498D01*
G37*
G04 #@! TD.AperFunction*
G04 #@! TA.AperFunction,Conductor*
G36*
X95464532Y-51209596D02*
G01*
X95488941Y-51228557D01*
X96548181Y-52287797D01*
X96581666Y-52349120D01*
X96584500Y-52375478D01*
X96584500Y-54690167D01*
X96564815Y-54757206D01*
X96512011Y-54802961D01*
X96442853Y-54812905D01*
X96436313Y-54811785D01*
X96424824Y-54809500D01*
X96424820Y-54809500D01*
X94695180Y-54809500D01*
X94695178Y-54809500D01*
X94651282Y-54818231D01*
X94651275Y-54818234D01*
X94601496Y-54851495D01*
X94601495Y-54851496D01*
X94568234Y-54901275D01*
X94568231Y-54901282D01*
X94559500Y-54945177D01*
X94559500Y-54945180D01*
X94559500Y-56674820D01*
X94559500Y-56674822D01*
X94559499Y-56674822D01*
X94568231Y-56718717D01*
X94568232Y-56718721D01*
X94568233Y-56718722D01*
X94601496Y-56768504D01*
X94651278Y-56801767D01*
X94651281Y-56801767D01*
X94651282Y-56801768D01*
X94695177Y-56810500D01*
X94701240Y-56811097D01*
X94700995Y-56813575D01*
X94757561Y-56830185D01*
X94803316Y-56882989D01*
X94813260Y-56952147D01*
X94784235Y-57015703D01*
X94778203Y-57022181D01*
X94212203Y-57588181D01*
X94150880Y-57621666D01*
X94124522Y-57624500D01*
X90236413Y-57624500D01*
X90212225Y-57622118D01*
X90197066Y-57619103D01*
X90197065Y-57619103D01*
X90089571Y-57640484D01*
X90021443Y-57686006D01*
X90021441Y-57686007D01*
X90007134Y-57695567D01*
X89998439Y-57701377D01*
X89989856Y-57714222D01*
X89974437Y-57733010D01*
X86837770Y-60869677D01*
X86776447Y-60903162D01*
X86706755Y-60898178D01*
X86674605Y-60880373D01*
X86646281Y-60858639D01*
X86646280Y-60858638D01*
X86646278Y-60858637D01*
X86512368Y-60803171D01*
X86512366Y-60803170D01*
X86512365Y-60803170D01*
X86440510Y-60793710D01*
X86368657Y-60784250D01*
X86368655Y-60784250D01*
X86224947Y-60803170D01*
X86224943Y-60803171D01*
X86091033Y-60858637D01*
X86089837Y-60859555D01*
X85976035Y-60946879D01*
X85976034Y-60946880D01*
X85976033Y-60946881D01*
X85951867Y-60978375D01*
X85895439Y-61019577D01*
X85825693Y-61023732D01*
X85765811Y-60990569D01*
X85762625Y-60987383D01*
X85762622Y-60987381D01*
X85762621Y-60987379D01*
X85647625Y-60899139D01*
X85647624Y-60899138D01*
X85647622Y-60899137D01*
X85513712Y-60843671D01*
X85513710Y-60843670D01*
X85513709Y-60843670D01*
X85479781Y-60839203D01*
X85429188Y-60832542D01*
X85365291Y-60804275D01*
X85326821Y-60745950D01*
X85325990Y-60676085D01*
X85357693Y-60621922D01*
X89126987Y-56852629D01*
X93167694Y-52811922D01*
X93229017Y-52778437D01*
X93255375Y-52775603D01*
X93726564Y-52775603D01*
X93750754Y-52777985D01*
X93765908Y-52781000D01*
X93793040Y-52775603D01*
X93793041Y-52775603D01*
X93827192Y-52768810D01*
X93873401Y-52759619D01*
X93873401Y-52759618D01*
X93873403Y-52759618D01*
X93915373Y-52731574D01*
X93941530Y-52714097D01*
X93941530Y-52714096D01*
X93954955Y-52705127D01*
X93954960Y-52705122D01*
X93964532Y-52698727D01*
X93973119Y-52685875D01*
X93988532Y-52667094D01*
X94917391Y-51738234D01*
X94936175Y-51722819D01*
X94949025Y-51714234D01*
X94970981Y-51681376D01*
X95003134Y-51633254D01*
X95030743Y-51603776D01*
X95143022Y-51517622D01*
X95231262Y-51402626D01*
X95286701Y-51268782D01*
X95330539Y-51214383D01*
X95396833Y-51192317D01*
X95464532Y-51209596D01*
G37*
G04 #@! TD.AperFunction*
G04 #@! TA.AperFunction,Conductor*
G36*
X98350000Y-60454498D02*
G01*
X98242315Y-60405320D01*
X98135763Y-60390000D01*
X98064237Y-60390000D01*
X97957685Y-60405320D01*
X97850000Y-60454498D01*
X97850000Y-58785501D01*
X97957685Y-58834680D01*
X98064237Y-58850000D01*
X98135763Y-58850000D01*
X98242315Y-58834680D01*
X98350000Y-58785501D01*
X98350000Y-60454498D01*
G37*
G04 #@! TD.AperFunction*
G04 #@! TA.AperFunction,Conductor*
G36*
X98350000Y-57914498D02*
G01*
X98242315Y-57865320D01*
X98135763Y-57850000D01*
X98064237Y-57850000D01*
X97957685Y-57865320D01*
X97850000Y-57914498D01*
X97850000Y-56245501D01*
X97957685Y-56294680D01*
X98064237Y-56310000D01*
X98135763Y-56310000D01*
X98242315Y-56294680D01*
X98350000Y-56245501D01*
X98350000Y-57914498D01*
G37*
G04 #@! TD.AperFunction*
G04 #@! TA.AperFunction,Conductor*
G36*
X102204755Y-47020185D02*
G01*
X102250510Y-47072989D01*
X102260454Y-47142147D01*
X102231429Y-47205703D01*
X102201644Y-47230751D01*
X102145370Y-47264609D01*
X102145367Y-47264611D01*
X101860486Y-47481170D01*
X101860485Y-47481171D01*
X101847257Y-47493702D01*
X101847256Y-47493703D01*
X103055819Y-48702266D01*
X102865130Y-48865130D01*
X102702266Y-49055819D01*
X101496442Y-47849995D01*
X101496441Y-47849996D01*
X101369033Y-47999992D01*
X101168218Y-48296172D01*
X101000606Y-48612322D01*
X101000597Y-48612340D01*
X100868149Y-48944760D01*
X100868147Y-48944767D01*
X100772421Y-49289542D01*
X100772415Y-49289568D01*
X100714527Y-49642668D01*
X100714526Y-49642685D01*
X100695153Y-49999997D01*
X100695153Y-50000002D01*
X100714526Y-50357314D01*
X100714527Y-50357331D01*
X100772415Y-50710431D01*
X100772421Y-50710457D01*
X100868147Y-51055232D01*
X100868149Y-51055239D01*
X101000597Y-51387659D01*
X101000606Y-51387677D01*
X101168218Y-51703827D01*
X101369024Y-51999994D01*
X101369035Y-52000008D01*
X101496441Y-52150002D01*
X101496442Y-52150002D01*
X102702265Y-50944179D01*
X102865130Y-51134870D01*
X103055819Y-51297733D01*
X101847257Y-52506294D01*
X101860495Y-52518836D01*
X102145367Y-52735388D01*
X102145370Y-52735390D01*
X102451990Y-52919876D01*
X102776739Y-53070122D01*
X102776744Y-53070123D01*
X103115855Y-53184383D01*
X103465339Y-53261311D01*
X103821075Y-53299999D01*
X103821085Y-53300000D01*
X104178915Y-53300000D01*
X104178924Y-53299999D01*
X104534660Y-53261311D01*
X104884144Y-53184383D01*
X105223255Y-53070123D01*
X105223260Y-53070122D01*
X105548009Y-52919876D01*
X105854629Y-52735390D01*
X105854632Y-52735388D01*
X106139509Y-52518831D01*
X106152742Y-52506295D01*
X106152742Y-52506294D01*
X104944181Y-51297733D01*
X105134870Y-51134870D01*
X105297733Y-50944180D01*
X106503556Y-52150002D01*
X106630972Y-51999998D01*
X106630975Y-51999994D01*
X106753844Y-51818777D01*
X106807758Y-51774336D01*
X106877140Y-51766098D01*
X106939962Y-51796678D01*
X106976278Y-51856369D01*
X106980476Y-51888846D01*
X106968609Y-54938920D01*
X106960002Y-57151171D01*
X106959983Y-57155982D01*
X106940038Y-57222945D01*
X106887056Y-57268494D01*
X106835984Y-57279500D01*
X99844760Y-57279500D01*
X99844554Y-57279459D01*
X99819998Y-57279459D01*
X99819807Y-57279538D01*
X99819619Y-57279615D01*
X99819615Y-57279618D01*
X99819458Y-57280000D01*
X99819372Y-57303678D01*
X99819482Y-57304246D01*
X99805001Y-78823719D01*
X99800000Y-78840708D01*
X99800000Y-82211022D01*
X99780315Y-82278061D01*
X99727511Y-82323816D01*
X99658353Y-82333760D01*
X99594797Y-82304735D01*
X99588319Y-82298703D01*
X99049220Y-81759604D01*
X99015735Y-81698281D01*
X99013962Y-81655737D01*
X99017255Y-81630730D01*
X99025250Y-81570000D01*
X99006330Y-81426291D01*
X98950861Y-81292375D01*
X98862621Y-81177379D01*
X98747625Y-81089139D01*
X98747624Y-81089138D01*
X98747622Y-81089137D01*
X98613712Y-81033671D01*
X98613710Y-81033670D01*
X98613709Y-81033670D01*
X98541854Y-81024210D01*
X98470001Y-81014750D01*
X98469999Y-81014750D01*
X98326291Y-81033670D01*
X98326287Y-81033671D01*
X98192377Y-81089137D01*
X98077379Y-81177379D01*
X97989137Y-81292377D01*
X97933671Y-81426287D01*
X97933670Y-81426291D01*
X97917823Y-81546662D01*
X97914750Y-81570000D01*
X97933195Y-81710104D01*
X97933670Y-81713708D01*
X97933671Y-81713712D01*
X97989137Y-81847622D01*
X97989138Y-81847624D01*
X97989139Y-81847625D01*
X98077379Y-81962621D01*
X98192375Y-82050861D01*
X98192376Y-82050861D01*
X98192377Y-82050862D01*
X98227751Y-82065514D01*
X98326291Y-82106330D01*
X98453280Y-82123048D01*
X98469999Y-82125250D01*
X98470000Y-82125250D01*
X98470001Y-82125250D01*
X98496133Y-82121809D01*
X98555738Y-82113962D01*
X98624772Y-82124727D01*
X98659604Y-82149220D01*
X99233181Y-82722797D01*
X99266666Y-82784120D01*
X99269500Y-82810478D01*
X99269500Y-97075500D01*
X99249815Y-97142539D01*
X99197011Y-97188294D01*
X99145500Y-97199500D01*
X97505178Y-97199500D01*
X97461282Y-97208231D01*
X97461275Y-97208234D01*
X97411496Y-97241495D01*
X97411495Y-97241496D01*
X97378234Y-97291275D01*
X97378231Y-97291282D01*
X97369500Y-97335177D01*
X97369500Y-97335180D01*
X97369500Y-99064820D01*
X97369500Y-99064822D01*
X97369499Y-99064822D01*
X97378231Y-99108717D01*
X97378232Y-99108721D01*
X97378233Y-99108722D01*
X97411496Y-99158504D01*
X97461278Y-99191767D01*
X97461281Y-99191767D01*
X97461282Y-99191768D01*
X97505177Y-99200500D01*
X99145500Y-99200500D01*
X99212539Y-99220185D01*
X99258294Y-99272989D01*
X99269500Y-99324500D01*
X99269500Y-99921734D01*
X99249815Y-99988773D01*
X99197011Y-100034528D01*
X99127853Y-100044472D01*
X99066835Y-100017587D01*
X98928539Y-99904090D01*
X98928532Y-99904086D01*
X98754733Y-99811188D01*
X98754727Y-99811186D01*
X98566132Y-99753976D01*
X98566129Y-99753975D01*
X98370000Y-99734659D01*
X98173870Y-99753975D01*
X97985266Y-99811188D01*
X97811467Y-99904086D01*
X97811460Y-99904090D01*
X97659116Y-100029116D01*
X97534090Y-100181460D01*
X97534086Y-100181467D01*
X97441188Y-100355266D01*
X97383975Y-100543870D01*
X97364659Y-100740000D01*
X97383975Y-100936129D01*
X97383976Y-100936132D01*
X97413967Y-101035000D01*
X97441188Y-101124733D01*
X97534086Y-101298532D01*
X97534090Y-101298539D01*
X97659116Y-101450883D01*
X97811460Y-101575909D01*
X97811467Y-101575913D01*
X97985266Y-101668811D01*
X97985269Y-101668811D01*
X97985273Y-101668814D01*
X98173868Y-101726024D01*
X98370000Y-101745341D01*
X98566132Y-101726024D01*
X98754727Y-101668814D01*
X98928538Y-101575910D01*
X99066835Y-101462412D01*
X99131145Y-101435099D01*
X99200012Y-101446890D01*
X99251573Y-101494042D01*
X99269500Y-101558265D01*
X99269500Y-101939521D01*
X99249815Y-102006560D01*
X99233181Y-102027202D01*
X98920420Y-102339963D01*
X98859097Y-102373448D01*
X98789405Y-102368464D01*
X98774285Y-102361640D01*
X98754730Y-102351187D01*
X98701372Y-102335001D01*
X98566132Y-102293976D01*
X98566129Y-102293975D01*
X98370000Y-102274659D01*
X98173870Y-102293975D01*
X97985266Y-102351188D01*
X97811467Y-102444086D01*
X97811460Y-102444090D01*
X97659116Y-102569116D01*
X97534090Y-102721460D01*
X97534086Y-102721467D01*
X97441188Y-102895266D01*
X97383975Y-103083870D01*
X97364659Y-103280000D01*
X97383975Y-103476129D01*
X97441188Y-103664733D01*
X97534086Y-103838532D01*
X97534090Y-103838539D01*
X97659116Y-103990883D01*
X97811460Y-104115909D01*
X97811467Y-104115913D01*
X97985266Y-104208811D01*
X97985269Y-104208811D01*
X97985273Y-104208814D01*
X98173868Y-104266024D01*
X98370000Y-104285341D01*
X98566132Y-104266024D01*
X98754727Y-104208814D01*
X98785479Y-104192377D01*
X98928532Y-104115913D01*
X98928538Y-104115910D01*
X99080883Y-103990883D01*
X99205910Y-103838538D01*
X99298814Y-103664727D01*
X99356024Y-103476132D01*
X99375341Y-103280000D01*
X99356024Y-103083868D01*
X99298814Y-102895273D01*
X99298810Y-102895266D01*
X99288359Y-102875712D01*
X99274117Y-102807310D01*
X99299117Y-102742066D01*
X99310029Y-102729585D01*
X99577356Y-102462258D01*
X99638677Y-102428775D01*
X99708369Y-102433759D01*
X99764302Y-102475631D01*
X99788719Y-102541095D01*
X99789035Y-102550024D01*
X99785608Y-107642165D01*
X99765878Y-107709192D01*
X99713044Y-107754911D01*
X99643878Y-107764808D01*
X99580342Y-107735740D01*
X99549225Y-107694486D01*
X99543598Y-107682419D01*
X99408113Y-107488926D01*
X99408108Y-107488920D01*
X99241082Y-107321894D01*
X99047578Y-107186399D01*
X98833492Y-107086570D01*
X98833486Y-107086567D01*
X98619891Y-107029335D01*
X98560231Y-106992970D01*
X98529702Y-106930123D01*
X98537997Y-106860747D01*
X98582482Y-106806870D01*
X98615986Y-106790900D01*
X98754727Y-106748814D01*
X98928538Y-106655910D01*
X99080883Y-106530883D01*
X99205910Y-106378538D01*
X99298814Y-106204727D01*
X99356024Y-106016132D01*
X99375341Y-105820000D01*
X99356024Y-105623868D01*
X99298814Y-105435273D01*
X99298811Y-105435269D01*
X99298811Y-105435266D01*
X99205913Y-105261467D01*
X99205909Y-105261460D01*
X99080883Y-105109116D01*
X98928539Y-104984090D01*
X98928532Y-104984086D01*
X98754733Y-104891188D01*
X98754727Y-104891186D01*
X98566132Y-104833976D01*
X98566129Y-104833975D01*
X98370000Y-104814659D01*
X98173870Y-104833975D01*
X97985266Y-104891188D01*
X97811467Y-104984086D01*
X97811460Y-104984090D01*
X97659116Y-105109116D01*
X97534090Y-105261460D01*
X97534086Y-105261467D01*
X97441188Y-105435266D01*
X97383975Y-105623870D01*
X97364659Y-105820000D01*
X97383975Y-106016129D01*
X97441188Y-106204733D01*
X97534086Y-106378532D01*
X97534090Y-106378539D01*
X97659116Y-106530883D01*
X97811460Y-106655909D01*
X97811467Y-106655913D01*
X97985266Y-106748811D01*
X97985269Y-106748811D01*
X97985273Y-106748814D01*
X98124011Y-106790900D01*
X98182448Y-106829197D01*
X98210905Y-106893009D01*
X98200344Y-106962076D01*
X98154120Y-107014470D01*
X98120108Y-107029335D01*
X97906513Y-107086567D01*
X97906507Y-107086570D01*
X97692422Y-107186399D01*
X97692420Y-107186400D01*
X97498926Y-107321886D01*
X97498920Y-107321891D01*
X97331891Y-107488920D01*
X97331886Y-107488926D01*
X97196400Y-107682420D01*
X97196399Y-107682422D01*
X97096570Y-107896507D01*
X97096567Y-107896513D01*
X97039364Y-108109999D01*
X97039364Y-108110000D01*
X97936314Y-108110000D01*
X97910507Y-108150156D01*
X97870000Y-108288111D01*
X97870000Y-108431889D01*
X97910507Y-108569844D01*
X97936314Y-108610000D01*
X97039364Y-108610000D01*
X97096567Y-108823486D01*
X97096570Y-108823492D01*
X97196399Y-109037578D01*
X97331894Y-109231082D01*
X97498917Y-109398105D01*
X97692421Y-109533600D01*
X97906507Y-109633429D01*
X97906516Y-109633433D01*
X98120107Y-109690664D01*
X98179768Y-109727029D01*
X98210297Y-109789876D01*
X98202002Y-109859251D01*
X98157517Y-109913129D01*
X98124010Y-109929099D01*
X97985271Y-109971186D01*
X97811467Y-110064086D01*
X97811460Y-110064090D01*
X97659116Y-110189116D01*
X97534090Y-110341460D01*
X97534086Y-110341467D01*
X97441188Y-110515266D01*
X97383975Y-110703870D01*
X97364659Y-110900000D01*
X97383975Y-111096129D01*
X97441188Y-111284733D01*
X97534086Y-111458532D01*
X97534090Y-111458539D01*
X97659116Y-111610883D01*
X97811460Y-111735909D01*
X97811467Y-111735913D01*
X97985266Y-111828811D01*
X97985269Y-111828811D01*
X97985273Y-111828814D01*
X98173868Y-111886024D01*
X98370000Y-111905341D01*
X98566132Y-111886024D01*
X98754727Y-111828814D01*
X98928538Y-111735910D01*
X99080883Y-111610883D01*
X99205910Y-111458538D01*
X99298814Y-111284727D01*
X99356024Y-111096132D01*
X99375341Y-110900000D01*
X99356024Y-110703868D01*
X99298814Y-110515273D01*
X99298811Y-110515269D01*
X99298811Y-110515266D01*
X99205913Y-110341467D01*
X99205909Y-110341460D01*
X99080883Y-110189116D01*
X98928539Y-110064090D01*
X98928532Y-110064086D01*
X98754728Y-109971186D01*
X98615989Y-109929099D01*
X98557551Y-109890801D01*
X98529094Y-109826989D01*
X98539655Y-109757922D01*
X98585880Y-109705529D01*
X98619892Y-109690664D01*
X98833483Y-109633433D01*
X98833492Y-109633429D01*
X99047578Y-109533600D01*
X99241082Y-109398105D01*
X99408105Y-109231082D01*
X99543600Y-109037577D01*
X99543601Y-109037575D01*
X99548259Y-109027588D01*
X99594431Y-108975148D01*
X99661624Y-108955996D01*
X99728506Y-108976211D01*
X99773840Y-109029377D01*
X99784641Y-109080075D01*
X99779516Y-116695510D01*
X99779416Y-116696013D01*
X99779459Y-116720000D01*
X99779500Y-116720099D01*
X99779617Y-116720383D01*
X99779618Y-116720384D01*
X99779808Y-116720462D01*
X99780000Y-116720541D01*
X99780002Y-116720539D01*
X99804616Y-116720524D01*
X99804616Y-116720528D01*
X99804760Y-116720500D01*
X106885378Y-116720500D01*
X106952417Y-116740185D01*
X106998172Y-116792989D01*
X107009378Y-116844621D01*
X107004220Y-122146775D01*
X106984470Y-122213795D01*
X106931622Y-122259498D01*
X106862454Y-122269375D01*
X106798926Y-122240288D01*
X106777587Y-122216241D01*
X106630975Y-122000005D01*
X106630964Y-121999991D01*
X106503556Y-121849996D01*
X105297733Y-123055818D01*
X105134870Y-122865130D01*
X104944180Y-122702266D01*
X106152742Y-121493704D01*
X106139504Y-121481163D01*
X105854632Y-121264611D01*
X105854629Y-121264609D01*
X105548009Y-121080123D01*
X105223260Y-120929877D01*
X105223255Y-120929876D01*
X104884144Y-120815616D01*
X104534660Y-120738688D01*
X104178924Y-120700000D01*
X103821075Y-120700000D01*
X103465339Y-120738688D01*
X103115855Y-120815616D01*
X102776744Y-120929876D01*
X102776739Y-120929877D01*
X102451990Y-121080123D01*
X102145370Y-121264609D01*
X102145367Y-121264611D01*
X101860486Y-121481170D01*
X101860485Y-121481171D01*
X101847257Y-121493702D01*
X101847256Y-121493703D01*
X103055819Y-122702266D01*
X102865130Y-122865130D01*
X102702266Y-123055819D01*
X101496442Y-121849995D01*
X101496441Y-121849996D01*
X101369033Y-121999992D01*
X101168218Y-122296172D01*
X101000606Y-122612322D01*
X101000597Y-122612340D01*
X100868149Y-122944760D01*
X100868147Y-122944767D01*
X100772421Y-123289542D01*
X100772415Y-123289568D01*
X100714527Y-123642668D01*
X100714526Y-123642685D01*
X100695153Y-123999997D01*
X100695153Y-124000002D01*
X100714526Y-124357314D01*
X100714527Y-124357331D01*
X100772415Y-124710431D01*
X100772421Y-124710457D01*
X100868147Y-125055232D01*
X100868149Y-125055239D01*
X101000597Y-125387659D01*
X101000606Y-125387677D01*
X101168218Y-125703827D01*
X101369024Y-125999994D01*
X101369035Y-126000008D01*
X101496441Y-126150002D01*
X101496442Y-126150002D01*
X102702265Y-124944179D01*
X102865130Y-125134870D01*
X103055819Y-125297733D01*
X101847257Y-126506294D01*
X101860495Y-126518836D01*
X102145367Y-126735388D01*
X102145370Y-126735390D01*
X102201644Y-126769249D01*
X102248939Y-126820678D01*
X102260922Y-126889513D01*
X102233787Y-126953899D01*
X102176151Y-126993393D01*
X102137716Y-126999500D01*
X71862284Y-126999500D01*
X71795245Y-126979815D01*
X71749490Y-126927011D01*
X71739546Y-126857853D01*
X71768571Y-126794297D01*
X71798356Y-126769249D01*
X71854629Y-126735390D01*
X71854632Y-126735388D01*
X72139509Y-126518831D01*
X72152742Y-126506295D01*
X72152742Y-126506294D01*
X70944181Y-125297733D01*
X71134870Y-125134870D01*
X71297733Y-124944180D01*
X72503556Y-126150002D01*
X72630972Y-125999998D01*
X72630975Y-125999994D01*
X72831781Y-125703827D01*
X72999393Y-125387677D01*
X72999402Y-125387659D01*
X73131850Y-125055239D01*
X73131852Y-125055232D01*
X73168376Y-124923685D01*
X73865740Y-124923685D01*
X73875755Y-125108406D01*
X73875755Y-125108411D01*
X73925244Y-125286656D01*
X73925247Y-125286662D01*
X74011898Y-125450102D01*
X74074540Y-125523850D01*
X74131663Y-125591100D01*
X74278936Y-125703054D01*
X74446833Y-125780732D01*
X74446834Y-125780732D01*
X74446836Y-125780733D01*
X74484772Y-125789083D01*
X74627503Y-125820500D01*
X74627506Y-125820500D01*
X74766107Y-125820500D01*
X74766113Y-125820500D01*
X74903910Y-125805514D01*
X75079221Y-125746444D01*
X75237736Y-125651070D01*
X75372041Y-125523849D01*
X75475858Y-125370730D01*
X75486596Y-125343781D01*
X75544330Y-125198877D01*
X75544329Y-125198877D01*
X75544331Y-125198875D01*
X75574260Y-125016317D01*
X75564245Y-124831593D01*
X75564244Y-124831588D01*
X75514755Y-124653343D01*
X75514752Y-124653337D01*
X75428101Y-124489897D01*
X75308337Y-124348900D01*
X75293259Y-124337438D01*
X75161064Y-124236946D01*
X74993167Y-124159268D01*
X74993163Y-124159266D01*
X74812497Y-124119500D01*
X74673887Y-124119500D01*
X74673883Y-124119500D01*
X74536088Y-124134486D01*
X74360776Y-124193557D01*
X74360774Y-124193558D01*
X74202262Y-124288931D01*
X74202261Y-124288932D01*
X74067959Y-124416149D01*
X73964138Y-124569276D01*
X73895669Y-124741122D01*
X73865740Y-124923685D01*
X73168376Y-124923685D01*
X73227578Y-124710457D01*
X73227584Y-124710431D01*
X73285472Y-124357331D01*
X73285473Y-124357314D01*
X73304847Y-124000002D01*
X73304847Y-123999997D01*
X73290018Y-123726517D01*
X75319500Y-123726517D01*
X75328487Y-123783258D01*
X75334354Y-123820304D01*
X75391950Y-123933342D01*
X75391952Y-123933344D01*
X75391954Y-123933347D01*
X75481652Y-124023045D01*
X75481654Y-124023046D01*
X75481658Y-124023050D01*
X75590082Y-124078295D01*
X75594698Y-124080647D01*
X75688475Y-124095499D01*
X75688481Y-124095500D01*
X76951518Y-124095499D01*
X76951519Y-124095499D01*
X76957441Y-124094560D01*
X76979210Y-124091113D01*
X77048501Y-124100067D01*
X77086289Y-124125905D01*
X78897369Y-125936985D01*
X78912790Y-125955775D01*
X78921373Y-125968621D01*
X78921374Y-125968621D01*
X78921376Y-125968624D01*
X78944376Y-125983992D01*
X78944378Y-125983994D01*
X78970534Y-126001471D01*
X79012505Y-126029515D01*
X79012507Y-126029515D01*
X79012507Y-126029516D01*
X79098832Y-126046687D01*
X79098839Y-126046687D01*
X79120000Y-126050897D01*
X79135153Y-126047882D01*
X79159344Y-126045500D01*
X95096207Y-126045500D01*
X95120397Y-126047882D01*
X95135551Y-126050897D01*
X95162683Y-126045500D01*
X95162684Y-126045500D01*
X95186285Y-126040805D01*
X95243044Y-126029516D01*
X95243044Y-126029515D01*
X95243046Y-126029515D01*
X95285016Y-126001471D01*
X95311173Y-125983994D01*
X95311173Y-125983993D01*
X95324602Y-125975021D01*
X95324604Y-125975018D01*
X95334175Y-125968624D01*
X95342759Y-125955775D01*
X95358175Y-125936990D01*
X96471990Y-124823175D01*
X96490772Y-124807761D01*
X96503624Y-124799175D01*
X96503624Y-124799173D01*
X96507812Y-124796376D01*
X96574490Y-124775499D01*
X96641870Y-124793985D01*
X96688559Y-124845964D01*
X96694053Y-124859713D01*
X96694353Y-124860303D01*
X96694354Y-124860304D01*
X96751950Y-124973342D01*
X96751952Y-124973344D01*
X96751954Y-124973347D01*
X96841652Y-125063045D01*
X96841654Y-125063046D01*
X96841658Y-125063050D01*
X96944481Y-125115441D01*
X96954698Y-125120647D01*
X97048475Y-125135499D01*
X97048481Y-125135500D01*
X98311518Y-125135499D01*
X98405304Y-125120646D01*
X98518342Y-125063050D01*
X98608050Y-124973342D01*
X98665646Y-124860304D01*
X98665646Y-124860302D01*
X98665647Y-124860301D01*
X98680499Y-124766524D01*
X98680500Y-124766519D01*
X98680499Y-123253482D01*
X98665646Y-123159696D01*
X98608050Y-123046658D01*
X98608046Y-123046654D01*
X98608045Y-123046652D01*
X98518347Y-122956954D01*
X98518344Y-122956952D01*
X98518342Y-122956950D01*
X98429028Y-122911442D01*
X98405301Y-122899352D01*
X98311524Y-122884500D01*
X97048482Y-122884500D01*
X96984581Y-122894621D01*
X96954696Y-122899354D01*
X96954694Y-122899354D01*
X96945058Y-122900881D01*
X96944860Y-122899631D01*
X96884864Y-122901341D01*
X96828714Y-122869098D01*
X96411819Y-122452203D01*
X96378334Y-122390880D01*
X96375500Y-122364522D01*
X96375500Y-121963685D01*
X98425740Y-121963685D01*
X98435755Y-122148406D01*
X98435755Y-122148411D01*
X98485244Y-122326656D01*
X98485247Y-122326662D01*
X98571898Y-122490102D01*
X98675072Y-122611568D01*
X98691663Y-122631100D01*
X98838936Y-122743054D01*
X99006833Y-122820732D01*
X99006834Y-122820732D01*
X99006836Y-122820733D01*
X99058956Y-122832205D01*
X99187503Y-122860500D01*
X99187506Y-122860500D01*
X99326107Y-122860500D01*
X99326113Y-122860500D01*
X99463910Y-122845514D01*
X99639221Y-122786444D01*
X99797736Y-122691070D01*
X99932041Y-122563849D01*
X100035858Y-122410730D01*
X100047502Y-122381507D01*
X100104330Y-122238877D01*
X100104329Y-122238877D01*
X100104331Y-122238875D01*
X100134260Y-122056317D01*
X100124245Y-121871593D01*
X100120847Y-121859354D01*
X100074755Y-121693343D01*
X100074752Y-121693337D01*
X99988101Y-121529897D01*
X99868337Y-121388900D01*
X99789449Y-121328931D01*
X99721064Y-121276946D01*
X99553167Y-121199268D01*
X99553163Y-121199266D01*
X99372497Y-121159500D01*
X99233887Y-121159500D01*
X99233883Y-121159500D01*
X99096088Y-121174486D01*
X98920776Y-121233557D01*
X98920774Y-121233558D01*
X98762262Y-121328931D01*
X98762261Y-121328932D01*
X98627959Y-121456149D01*
X98524138Y-121609276D01*
X98455669Y-121781122D01*
X98455669Y-121781125D01*
X98428381Y-121947577D01*
X98425740Y-121963685D01*
X96375500Y-121963685D01*
X96375500Y-98452948D01*
X96377883Y-98428755D01*
X96380897Y-98413603D01*
X96361898Y-98318090D01*
X96361296Y-98311979D01*
X96359515Y-98306108D01*
X96331471Y-98264137D01*
X96331470Y-98264137D01*
X96310616Y-98232927D01*
X96310612Y-98232922D01*
X96298624Y-98214980D01*
X96298621Y-98214978D01*
X96298621Y-98214977D01*
X96285775Y-98206394D01*
X96266985Y-98190973D01*
X95937911Y-97861899D01*
X95904426Y-97800576D01*
X95901592Y-97774218D01*
X95901592Y-96796311D01*
X95921277Y-96729272D01*
X95950101Y-96697938D01*
X96018713Y-96645291D01*
X96106953Y-96530295D01*
X96162422Y-96396379D01*
X96181342Y-96252670D01*
X96162422Y-96108961D01*
X96119909Y-96006325D01*
X96106954Y-95975047D01*
X96106953Y-95975046D01*
X96106953Y-95975045D01*
X96018713Y-95860049D01*
X95903717Y-95771809D01*
X95903716Y-95771808D01*
X95903714Y-95771807D01*
X95769804Y-95716341D01*
X95769802Y-95716340D01*
X95769801Y-95716340D01*
X95697946Y-95706880D01*
X95626093Y-95697420D01*
X95626091Y-95697420D01*
X95572676Y-95704452D01*
X95503641Y-95693686D01*
X95468810Y-95669194D01*
X89321819Y-89522203D01*
X89288334Y-89460880D01*
X89285500Y-89434522D01*
X89285500Y-66791163D01*
X89305185Y-66724124D01*
X89321814Y-66703487D01*
X90517460Y-65507840D01*
X90578781Y-65474357D01*
X90580880Y-65473919D01*
X90604718Y-65469178D01*
X90646688Y-65441134D01*
X90672845Y-65423657D01*
X90672845Y-65423656D01*
X90686270Y-65414687D01*
X90686275Y-65414682D01*
X90695847Y-65408287D01*
X90704434Y-65395435D01*
X90719847Y-65376654D01*
X91053070Y-65043430D01*
X91114391Y-65009947D01*
X91156937Y-65008175D01*
X91163682Y-65009063D01*
X91163683Y-65009063D01*
X91178659Y-65007091D01*
X91307391Y-64990143D01*
X91441307Y-64934674D01*
X91556303Y-64846434D01*
X91644543Y-64731438D01*
X91700012Y-64597522D01*
X91718932Y-64453813D01*
X91700012Y-64310104D01*
X91660793Y-64215419D01*
X91644544Y-64176190D01*
X91644543Y-64176189D01*
X91644543Y-64176188D01*
X91556303Y-64061192D01*
X91441307Y-63972952D01*
X91441306Y-63972951D01*
X91441304Y-63972950D01*
X91307394Y-63917484D01*
X91307392Y-63917483D01*
X91307391Y-63917483D01*
X91297813Y-63916222D01*
X91246396Y-63909452D01*
X91182499Y-63881184D01*
X91144029Y-63822859D01*
X91139644Y-63770327D01*
X91140454Y-63764172D01*
X91140455Y-63764171D01*
X91159375Y-63620462D01*
X91140455Y-63476753D01*
X91084986Y-63342837D01*
X90996746Y-63227841D01*
X90934399Y-63180000D01*
X90911588Y-63162496D01*
X90870386Y-63106068D01*
X90866231Y-63036322D01*
X90888700Y-62988634D01*
X90950628Y-62907929D01*
X90950861Y-62907625D01*
X91006330Y-62773709D01*
X91025250Y-62630000D01*
X91006330Y-62486291D01*
X90950861Y-62352375D01*
X90862621Y-62237379D01*
X90747625Y-62149139D01*
X90747624Y-62149138D01*
X90747622Y-62149137D01*
X90613712Y-62093671D01*
X90613710Y-62093670D01*
X90613709Y-62093670D01*
X90541854Y-62084210D01*
X90470001Y-62074750D01*
X90469999Y-62074750D01*
X90326291Y-62093670D01*
X90326287Y-62093671D01*
X90192377Y-62149137D01*
X90116972Y-62206998D01*
X90077379Y-62237379D01*
X90024732Y-62305988D01*
X89968307Y-62347189D01*
X89926359Y-62354500D01*
X87067938Y-62354500D01*
X87000899Y-62334815D01*
X86955144Y-62282011D01*
X86945200Y-62212853D01*
X86974225Y-62149297D01*
X86980257Y-62142819D01*
X88696564Y-60426513D01*
X90461258Y-58661819D01*
X90522581Y-58628334D01*
X90548939Y-58625500D01*
X94506088Y-58625500D01*
X94573127Y-58645185D01*
X94618882Y-58697989D01*
X94624745Y-58713495D01*
X94631186Y-58734727D01*
X94631187Y-58734730D01*
X94631188Y-58734731D01*
X94724086Y-58908532D01*
X94724090Y-58908539D01*
X94849116Y-59060883D01*
X95001460Y-59185909D01*
X95001467Y-59185913D01*
X95175266Y-59278811D01*
X95175269Y-59278811D01*
X95175273Y-59278814D01*
X95363868Y-59336024D01*
X95560000Y-59355341D01*
X95756132Y-59336024D01*
X95944727Y-59278814D01*
X96118538Y-59185910D01*
X96270883Y-59060883D01*
X96317262Y-59004370D01*
X96364647Y-58946632D01*
X96422392Y-58907298D01*
X96492237Y-58905427D01*
X96552005Y-58941615D01*
X96582721Y-59004370D01*
X96584500Y-59025297D01*
X96584500Y-60214702D01*
X96564815Y-60281741D01*
X96512011Y-60327496D01*
X96442853Y-60337440D01*
X96379297Y-60308415D01*
X96364647Y-60293367D01*
X96270883Y-60179116D01*
X96118539Y-60054090D01*
X96118532Y-60054086D01*
X95944733Y-59961188D01*
X95944727Y-59961186D01*
X95756132Y-59903976D01*
X95756129Y-59903975D01*
X95560000Y-59884659D01*
X95363870Y-59903975D01*
X95175266Y-59961188D01*
X95001467Y-60054086D01*
X95001460Y-60054090D01*
X94849116Y-60179116D01*
X94724090Y-60331460D01*
X94724086Y-60331467D01*
X94631188Y-60505266D01*
X94573975Y-60693870D01*
X94554659Y-60890000D01*
X94573975Y-61086129D01*
X94578903Y-61102375D01*
X94606078Y-61191959D01*
X94631188Y-61274733D01*
X94724086Y-61448532D01*
X94724090Y-61448539D01*
X94849116Y-61600883D01*
X95001460Y-61725909D01*
X95001467Y-61725913D01*
X95175266Y-61818811D01*
X95175269Y-61818811D01*
X95175273Y-61818814D01*
X95363868Y-61876024D01*
X95560000Y-61895341D01*
X95756132Y-61876024D01*
X95944727Y-61818814D01*
X95955880Y-61812853D01*
X96118532Y-61725913D01*
X96118538Y-61725910D01*
X96270883Y-61600883D01*
X96364647Y-61486632D01*
X96422392Y-61447298D01*
X96492237Y-61445427D01*
X96552005Y-61481615D01*
X96582721Y-61544370D01*
X96584500Y-61565297D01*
X96584500Y-62754702D01*
X96564815Y-62821741D01*
X96512011Y-62867496D01*
X96442853Y-62877440D01*
X96379297Y-62848415D01*
X96364647Y-62833367D01*
X96270883Y-62719116D01*
X96118539Y-62594090D01*
X96118532Y-62594086D01*
X95944733Y-62501188D01*
X95944727Y-62501186D01*
X95756132Y-62443976D01*
X95756129Y-62443975D01*
X95560000Y-62424659D01*
X95363870Y-62443975D01*
X95175266Y-62501188D01*
X95001467Y-62594086D01*
X95001460Y-62594090D01*
X94849116Y-62719116D01*
X94724090Y-62871460D01*
X94724086Y-62871467D01*
X94631188Y-63045266D01*
X94573975Y-63233870D01*
X94554659Y-63430000D01*
X94573975Y-63626129D01*
X94584213Y-63659880D01*
X94623701Y-63790054D01*
X94631188Y-63814733D01*
X94724086Y-63988532D01*
X94724090Y-63988539D01*
X94829652Y-64117165D01*
X94856965Y-64181475D01*
X94845174Y-64250342D01*
X94798022Y-64301903D01*
X94731870Y-64319417D01*
X94731870Y-64319447D01*
X94731760Y-64319447D01*
X94730480Y-64319786D01*
X94727449Y-64319447D01*
X94711389Y-64319447D01*
X94663938Y-64310009D01*
X94631010Y-64296370D01*
X94487301Y-64277450D01*
X94487299Y-64277450D01*
X94343591Y-64296370D01*
X94343587Y-64296371D01*
X94209677Y-64351837D01*
X94094679Y-64440079D01*
X94006437Y-64555077D01*
X93950971Y-64688987D01*
X93950970Y-64688991D01*
X93932050Y-64832700D01*
X93938414Y-64881042D01*
X93950970Y-64976408D01*
X93950971Y-64976412D01*
X94006437Y-65110322D01*
X94006438Y-65110324D01*
X94006439Y-65110325D01*
X94094679Y-65225321D01*
X94209675Y-65313561D01*
X94343591Y-65369030D01*
X94487300Y-65387950D01*
X94516190Y-65384146D01*
X94585223Y-65394910D01*
X94637479Y-65441289D01*
X94656366Y-65508558D01*
X94641735Y-65565535D01*
X94631188Y-65585267D01*
X94573975Y-65773870D01*
X94554659Y-65970000D01*
X94573975Y-66166129D01*
X94581810Y-66191958D01*
X94630621Y-66352866D01*
X94631188Y-66354733D01*
X94724086Y-66528532D01*
X94724090Y-66528539D01*
X94849116Y-66680883D01*
X95001460Y-66805909D01*
X95001467Y-66805913D01*
X95175266Y-66898811D01*
X95175269Y-66898811D01*
X95175273Y-66898814D01*
X95363868Y-66956024D01*
X95560000Y-66975341D01*
X95756132Y-66956024D01*
X95944727Y-66898814D01*
X95948520Y-66896787D01*
X96080415Y-66826287D01*
X96118538Y-66805910D01*
X96241835Y-66704721D01*
X96306145Y-66677409D01*
X96375012Y-66689200D01*
X96426572Y-66736352D01*
X96444500Y-66800575D01*
X96444500Y-67679424D01*
X96424815Y-67746463D01*
X96372011Y-67792218D01*
X96302853Y-67802162D01*
X96241835Y-67775277D01*
X96118539Y-67674090D01*
X96118532Y-67674086D01*
X95944733Y-67581188D01*
X95944727Y-67581186D01*
X95756132Y-67523976D01*
X95756129Y-67523975D01*
X95560000Y-67504659D01*
X95363870Y-67523975D01*
X95175266Y-67581188D01*
X95001467Y-67674086D01*
X95001460Y-67674090D01*
X94849116Y-67799116D01*
X94724090Y-67951460D01*
X94724086Y-67951467D01*
X94631188Y-68125266D01*
X94573975Y-68313870D01*
X94554659Y-68510000D01*
X94573975Y-68706129D01*
X94590317Y-68760000D01*
X94628527Y-68885963D01*
X94631188Y-68894733D01*
X94724086Y-69068532D01*
X94724090Y-69068539D01*
X94849116Y-69220883D01*
X95001460Y-69345909D01*
X95001467Y-69345913D01*
X95175266Y-69438811D01*
X95175269Y-69438811D01*
X95175273Y-69438814D01*
X95363868Y-69496024D01*
X95560000Y-69515341D01*
X95756132Y-69496024D01*
X95944727Y-69438814D01*
X96118538Y-69345910D01*
X96241835Y-69244721D01*
X96306145Y-69217409D01*
X96375012Y-69229200D01*
X96426572Y-69276352D01*
X96444500Y-69340575D01*
X96444500Y-70219424D01*
X96424815Y-70286463D01*
X96372011Y-70332218D01*
X96302853Y-70342162D01*
X96241835Y-70315277D01*
X96118539Y-70214090D01*
X96118532Y-70214086D01*
X95944733Y-70121188D01*
X95944727Y-70121186D01*
X95756132Y-70063976D01*
X95756129Y-70063975D01*
X95560000Y-70044659D01*
X95363870Y-70063975D01*
X95175266Y-70121188D01*
X95001467Y-70214086D01*
X95001460Y-70214090D01*
X94849116Y-70339116D01*
X94724090Y-70491460D01*
X94724086Y-70491467D01*
X94631188Y-70665266D01*
X94573975Y-70853870D01*
X94554659Y-71050000D01*
X94573975Y-71246129D01*
X94631188Y-71434733D01*
X94724086Y-71608532D01*
X94724090Y-71608539D01*
X94849116Y-71760883D01*
X95001460Y-71885909D01*
X95001467Y-71885913D01*
X95175266Y-71978811D01*
X95175269Y-71978811D01*
X95175273Y-71978814D01*
X95363868Y-72036024D01*
X95560000Y-72055341D01*
X95756132Y-72036024D01*
X95944727Y-71978814D01*
X96118538Y-71885910D01*
X96241835Y-71784721D01*
X96306145Y-71757409D01*
X96375012Y-71769200D01*
X96426572Y-71816352D01*
X96444500Y-71880575D01*
X96444500Y-72759424D01*
X96424815Y-72826463D01*
X96372011Y-72872218D01*
X96302853Y-72882162D01*
X96241835Y-72855277D01*
X96118539Y-72754090D01*
X96118532Y-72754086D01*
X95944733Y-72661188D01*
X95944727Y-72661186D01*
X95756132Y-72603976D01*
X95756129Y-72603975D01*
X95560000Y-72584659D01*
X95363870Y-72603975D01*
X95175270Y-72661187D01*
X95155710Y-72671642D01*
X95087307Y-72685882D01*
X95022064Y-72660880D01*
X95009579Y-72649963D01*
X91333260Y-68973644D01*
X91299775Y-68912321D01*
X91296941Y-68885963D01*
X91296941Y-67634141D01*
X91316626Y-67567102D01*
X91345450Y-67535768D01*
X91414062Y-67483121D01*
X91502302Y-67368125D01*
X91557771Y-67234209D01*
X91576691Y-67090500D01*
X91557771Y-66946791D01*
X91502302Y-66812875D01*
X91414062Y-66697879D01*
X91299066Y-66609639D01*
X91299065Y-66609638D01*
X91299063Y-66609637D01*
X91165153Y-66554171D01*
X91165151Y-66554170D01*
X91165150Y-66554170D01*
X91093295Y-66544710D01*
X91021442Y-66535250D01*
X91021440Y-66535250D01*
X90877732Y-66554170D01*
X90877728Y-66554171D01*
X90743818Y-66609637D01*
X90628820Y-66697879D01*
X90540578Y-66812877D01*
X90485112Y-66946787D01*
X90485111Y-66946791D01*
X90466191Y-67090499D01*
X90466191Y-67090500D01*
X90485111Y-67234208D01*
X90485112Y-67234212D01*
X90540578Y-67368122D01*
X90540579Y-67368124D01*
X90540580Y-67368125D01*
X90628820Y-67483121D01*
X90697429Y-67535767D01*
X90738630Y-67592193D01*
X90745941Y-67634141D01*
X90745941Y-69012096D01*
X90743558Y-69036288D01*
X90740544Y-69051440D01*
X90740544Y-69051443D01*
X90744751Y-69072593D01*
X90744752Y-69072600D01*
X90761924Y-69158933D01*
X90761925Y-69158935D01*
X90761926Y-69158936D01*
X90779500Y-69185237D01*
X90779501Y-69185239D01*
X90802753Y-69220039D01*
X90822815Y-69250064D01*
X90827026Y-69252877D01*
X90835663Y-69258648D01*
X90854453Y-69274069D01*
X94619963Y-73039579D01*
X94653448Y-73100902D01*
X94648464Y-73170594D01*
X94641642Y-73185710D01*
X94631187Y-73205270D01*
X94573975Y-73393870D01*
X94554659Y-73590000D01*
X94573975Y-73786129D01*
X94631188Y-73974733D01*
X94724086Y-74148532D01*
X94724090Y-74148539D01*
X94849116Y-74300883D01*
X95001460Y-74425909D01*
X95001467Y-74425913D01*
X95175266Y-74518811D01*
X95175269Y-74518811D01*
X95175273Y-74518814D01*
X95363868Y-74576024D01*
X95476044Y-74587072D01*
X95540831Y-74613233D01*
X95581190Y-74670267D01*
X95584307Y-74740067D01*
X95551571Y-74798156D01*
X95121547Y-75228181D01*
X95060224Y-75261666D01*
X95033866Y-75264500D01*
X94943641Y-75264500D01*
X94876602Y-75244815D01*
X94845268Y-75215990D01*
X94792621Y-75147379D01*
X94677625Y-75059139D01*
X94677624Y-75059138D01*
X94677622Y-75059137D01*
X94543712Y-75003671D01*
X94543710Y-75003670D01*
X94543709Y-75003670D01*
X94471854Y-74994210D01*
X94400001Y-74984750D01*
X94399999Y-74984750D01*
X94256291Y-75003670D01*
X94256287Y-75003671D01*
X94122377Y-75059137D01*
X94007379Y-75147379D01*
X93919137Y-75262377D01*
X93863671Y-75396287D01*
X93863670Y-75396291D01*
X93844750Y-75540000D01*
X93859154Y-75649411D01*
X93863670Y-75683708D01*
X93863671Y-75683712D01*
X93919137Y-75817622D01*
X93919138Y-75817624D01*
X93919139Y-75817625D01*
X94007379Y-75932621D01*
X94122375Y-76020861D01*
X94256291Y-76076330D01*
X94383280Y-76093048D01*
X94399999Y-76095250D01*
X94400000Y-76095250D01*
X94400001Y-76095250D01*
X94414977Y-76093278D01*
X94543709Y-76076330D01*
X94677625Y-76020861D01*
X94792621Y-75932621D01*
X94845267Y-75864011D01*
X94901693Y-75822811D01*
X94943641Y-75815500D01*
X95160000Y-75815500D01*
X95184190Y-75817882D01*
X95199344Y-75820897D01*
X95226476Y-75815500D01*
X95226477Y-75815500D01*
X95250078Y-75810805D01*
X95306837Y-75799516D01*
X95306837Y-75799515D01*
X95306839Y-75799515D01*
X95348809Y-75771471D01*
X95374966Y-75753994D01*
X95374966Y-75753993D01*
X95388395Y-75745021D01*
X95388397Y-75745018D01*
X95397968Y-75738624D01*
X95406552Y-75725775D01*
X95421968Y-75706990D01*
X96795130Y-74333828D01*
X96856451Y-74300345D01*
X96926143Y-74305329D01*
X96982076Y-74347201D01*
X96984384Y-74350387D01*
X97061894Y-74461082D01*
X97228917Y-74628105D01*
X97422421Y-74763600D01*
X97636507Y-74863429D01*
X97636516Y-74863433D01*
X97850000Y-74920634D01*
X97850000Y-74025501D01*
X97957685Y-74074680D01*
X98064237Y-74090000D01*
X98135763Y-74090000D01*
X98242315Y-74074680D01*
X98350000Y-74025501D01*
X98350000Y-74920633D01*
X98563483Y-74863433D01*
X98563492Y-74863429D01*
X98777578Y-74763600D01*
X98971082Y-74628105D01*
X99138105Y-74461082D01*
X99273600Y-74267578D01*
X99373429Y-74053492D01*
X99373432Y-74053486D01*
X99430636Y-73840000D01*
X98533686Y-73840000D01*
X98559493Y-73799844D01*
X98600000Y-73661889D01*
X98600000Y-73518111D01*
X98559493Y-73380156D01*
X98533686Y-73340000D01*
X99430636Y-73340000D01*
X99430635Y-73339999D01*
X99373432Y-73126513D01*
X99373429Y-73126507D01*
X99273600Y-72912422D01*
X99273599Y-72912420D01*
X99138113Y-72718926D01*
X99138108Y-72718920D01*
X98971082Y-72551894D01*
X98784968Y-72421575D01*
X98741344Y-72366998D01*
X98734151Y-72297499D01*
X98765673Y-72235145D01*
X98784968Y-72218425D01*
X98971082Y-72088105D01*
X99138105Y-71921082D01*
X99273600Y-71727578D01*
X99373429Y-71513492D01*
X99373432Y-71513486D01*
X99430636Y-71300000D01*
X98533686Y-71300000D01*
X98559493Y-71259844D01*
X98600000Y-71121889D01*
X98600000Y-70978111D01*
X98559493Y-70840156D01*
X98533686Y-70800000D01*
X99430636Y-70800000D01*
X99430635Y-70799999D01*
X99373432Y-70586513D01*
X99373429Y-70586507D01*
X99273600Y-70372422D01*
X99273599Y-70372420D01*
X99138113Y-70178926D01*
X99138108Y-70178920D01*
X98971082Y-70011894D01*
X98784968Y-69881575D01*
X98741344Y-69826998D01*
X98734151Y-69757499D01*
X98765673Y-69695145D01*
X98784968Y-69678425D01*
X98971082Y-69548105D01*
X99138105Y-69381082D01*
X99273600Y-69187578D01*
X99373429Y-68973492D01*
X99373432Y-68973486D01*
X99430636Y-68760000D01*
X98533686Y-68760000D01*
X98559493Y-68719844D01*
X98600000Y-68581889D01*
X98600000Y-68438111D01*
X98559493Y-68300156D01*
X98533686Y-68260000D01*
X99430636Y-68260000D01*
X99430635Y-68259999D01*
X99373432Y-68046513D01*
X99373429Y-68046507D01*
X99273600Y-67832422D01*
X99273599Y-67832420D01*
X99138113Y-67638926D01*
X99138108Y-67638920D01*
X98971082Y-67471894D01*
X98784968Y-67341575D01*
X98741344Y-67286998D01*
X98734151Y-67217499D01*
X98765673Y-67155145D01*
X98784968Y-67138425D01*
X98971082Y-67008105D01*
X99138105Y-66841082D01*
X99273600Y-66647578D01*
X99373429Y-66433492D01*
X99373432Y-66433486D01*
X99430636Y-66220000D01*
X98533686Y-66220000D01*
X98559493Y-66179844D01*
X98600000Y-66041889D01*
X98600000Y-65898111D01*
X98559493Y-65760156D01*
X98533686Y-65720000D01*
X99430636Y-65720000D01*
X99430635Y-65719999D01*
X99373432Y-65506513D01*
X99373429Y-65506507D01*
X99273600Y-65292422D01*
X99273599Y-65292420D01*
X99138113Y-65098926D01*
X99138108Y-65098920D01*
X98971082Y-64931894D01*
X98784968Y-64801575D01*
X98741344Y-64746998D01*
X98734151Y-64677499D01*
X98765673Y-64615145D01*
X98784968Y-64598425D01*
X98971082Y-64468105D01*
X99138105Y-64301082D01*
X99273600Y-64107578D01*
X99373429Y-63893492D01*
X99373432Y-63893486D01*
X99430636Y-63680000D01*
X98533686Y-63680000D01*
X98559493Y-63639844D01*
X98600000Y-63501889D01*
X98600000Y-63358111D01*
X98559493Y-63220156D01*
X98533686Y-63180000D01*
X99430636Y-63180000D01*
X99430635Y-63179999D01*
X99373432Y-62966513D01*
X99373429Y-62966507D01*
X99273600Y-62752422D01*
X99273599Y-62752420D01*
X99138113Y-62558926D01*
X99138108Y-62558920D01*
X98971082Y-62391894D01*
X98784968Y-62261575D01*
X98741344Y-62206998D01*
X98734151Y-62137499D01*
X98765673Y-62075145D01*
X98784968Y-62058425D01*
X98971082Y-61928105D01*
X99138105Y-61761082D01*
X99273600Y-61567578D01*
X99373429Y-61353492D01*
X99373432Y-61353486D01*
X99430636Y-61140000D01*
X98533686Y-61140000D01*
X98559493Y-61099844D01*
X98600000Y-60961889D01*
X98600000Y-60818111D01*
X98559493Y-60680156D01*
X98533686Y-60640000D01*
X99430636Y-60640000D01*
X99430635Y-60639999D01*
X99373432Y-60426513D01*
X99373429Y-60426507D01*
X99273600Y-60212422D01*
X99273599Y-60212420D01*
X99138113Y-60018926D01*
X99138108Y-60018920D01*
X98971082Y-59851894D01*
X98784968Y-59721575D01*
X98741344Y-59666998D01*
X98734151Y-59597499D01*
X98765673Y-59535145D01*
X98784968Y-59518425D01*
X98971082Y-59388105D01*
X99138105Y-59221082D01*
X99273600Y-59027578D01*
X99373429Y-58813492D01*
X99373432Y-58813486D01*
X99430636Y-58600000D01*
X98533686Y-58600000D01*
X98559493Y-58559844D01*
X98600000Y-58421889D01*
X98600000Y-58278111D01*
X98559493Y-58140156D01*
X98533686Y-58100000D01*
X99430636Y-58100000D01*
X99430635Y-58099999D01*
X99373432Y-57886513D01*
X99373429Y-57886507D01*
X99273600Y-57672422D01*
X99273599Y-57672420D01*
X99138113Y-57478926D01*
X99138108Y-57478920D01*
X98971082Y-57311894D01*
X98784968Y-57181575D01*
X98741344Y-57126998D01*
X98734151Y-57057499D01*
X98765673Y-56995145D01*
X98784968Y-56978425D01*
X98971082Y-56848105D01*
X99138105Y-56681082D01*
X99273600Y-56487578D01*
X99373429Y-56273492D01*
X99373432Y-56273486D01*
X99430636Y-56060000D01*
X98533686Y-56060000D01*
X98559493Y-56019844D01*
X98600000Y-55881889D01*
X98600000Y-55738111D01*
X98559493Y-55600156D01*
X98533686Y-55560000D01*
X99430636Y-55560000D01*
X99430635Y-55559999D01*
X99373432Y-55346513D01*
X99373429Y-55346507D01*
X99273600Y-55132422D01*
X99273599Y-55132420D01*
X99138113Y-54938926D01*
X99138108Y-54938920D01*
X98971082Y-54771894D01*
X98777578Y-54636399D01*
X98563492Y-54536570D01*
X98563486Y-54536567D01*
X98350000Y-54479364D01*
X98350000Y-55374498D01*
X98242315Y-55325320D01*
X98135763Y-55310000D01*
X98064237Y-55310000D01*
X97957685Y-55325320D01*
X97850000Y-55374498D01*
X97850000Y-54479364D01*
X97849999Y-54479364D01*
X97636513Y-54536567D01*
X97636507Y-54536570D01*
X97422422Y-54636399D01*
X97422420Y-54636400D01*
X97330623Y-54700677D01*
X97264416Y-54723004D01*
X97196649Y-54705993D01*
X97148837Y-54655045D01*
X97135500Y-54599102D01*
X97135500Y-52249339D01*
X97137883Y-52225146D01*
X97137967Y-52224727D01*
X97140896Y-52210000D01*
X97136688Y-52188848D01*
X97136687Y-52188833D01*
X97119516Y-52102509D01*
X97119515Y-52102508D01*
X97119515Y-52102505D01*
X97075164Y-52036129D01*
X97058624Y-52011375D01*
X97045775Y-52002790D01*
X97026985Y-51987369D01*
X94600036Y-49560420D01*
X94566551Y-49499097D01*
X94571535Y-49429405D01*
X94578361Y-49414282D01*
X94585698Y-49400556D01*
X94588814Y-49394727D01*
X94646024Y-49206132D01*
X94665341Y-49010000D01*
X95194659Y-49010000D01*
X95213975Y-49206129D01*
X95271188Y-49394733D01*
X95364086Y-49568532D01*
X95364090Y-49568539D01*
X95489116Y-49720883D01*
X95641460Y-49845909D01*
X95641467Y-49845913D01*
X95815266Y-49938811D01*
X95815269Y-49938811D01*
X95815273Y-49938814D01*
X96003868Y-49996024D01*
X96200000Y-50015341D01*
X96396132Y-49996024D01*
X96584727Y-49938814D01*
X96622317Y-49918722D01*
X96692736Y-49881082D01*
X96704448Y-49874822D01*
X97739499Y-49874822D01*
X97748231Y-49918717D01*
X97748234Y-49918724D01*
X97761656Y-49938811D01*
X97781496Y-49968504D01*
X97831278Y-50001767D01*
X97831281Y-50001767D01*
X97831282Y-50001768D01*
X97875177Y-50010500D01*
X97875180Y-50010500D01*
X99604822Y-50010500D01*
X99648717Y-50001768D01*
X99648717Y-50001767D01*
X99648722Y-50001767D01*
X99698504Y-49968504D01*
X99731767Y-49918722D01*
X99734672Y-49904118D01*
X99740500Y-49874822D01*
X99740500Y-48145177D01*
X99731768Y-48101282D01*
X99731767Y-48101281D01*
X99731767Y-48101278D01*
X99698504Y-48051496D01*
X99698503Y-48051495D01*
X99648724Y-48018234D01*
X99648717Y-48018231D01*
X99604822Y-48009500D01*
X99604820Y-48009500D01*
X97875180Y-48009500D01*
X97875178Y-48009500D01*
X97831282Y-48018231D01*
X97831275Y-48018234D01*
X97781496Y-48051495D01*
X97781495Y-48051496D01*
X97748234Y-48101275D01*
X97748231Y-48101282D01*
X97739500Y-48145177D01*
X97739500Y-48145180D01*
X97739500Y-49874820D01*
X97739500Y-49874822D01*
X97739499Y-49874822D01*
X96704448Y-49874822D01*
X96758538Y-49845910D01*
X96910883Y-49720883D01*
X97035910Y-49568538D01*
X97125392Y-49401130D01*
X97128811Y-49394733D01*
X97128812Y-49394731D01*
X97128814Y-49394727D01*
X97186024Y-49206132D01*
X97205341Y-49010000D01*
X97186024Y-48813868D01*
X97128814Y-48625273D01*
X97128811Y-48625269D01*
X97128811Y-48625266D01*
X97035913Y-48451467D01*
X97035909Y-48451460D01*
X96910883Y-48299116D01*
X96758539Y-48174090D01*
X96758532Y-48174086D01*
X96584733Y-48081188D01*
X96584727Y-48081186D01*
X96404683Y-48026570D01*
X96396129Y-48023975D01*
X96200000Y-48004659D01*
X96003870Y-48023975D01*
X95815266Y-48081188D01*
X95641467Y-48174086D01*
X95641460Y-48174090D01*
X95489116Y-48299116D01*
X95364090Y-48451460D01*
X95364086Y-48451467D01*
X95271188Y-48625266D01*
X95213975Y-48813870D01*
X95194659Y-49010000D01*
X94665341Y-49010000D01*
X94646024Y-48813868D01*
X94588814Y-48625273D01*
X94588811Y-48625269D01*
X94588811Y-48625266D01*
X94495913Y-48451467D01*
X94495909Y-48451460D01*
X94370883Y-48299116D01*
X94218539Y-48174090D01*
X94218532Y-48174086D01*
X94044733Y-48081188D01*
X94044727Y-48081186D01*
X93864683Y-48026570D01*
X93856129Y-48023975D01*
X93660000Y-48004659D01*
X93463870Y-48023975D01*
X93275266Y-48081188D01*
X93101467Y-48174086D01*
X93101460Y-48174090D01*
X92949116Y-48299116D01*
X92824090Y-48451460D01*
X92824086Y-48451467D01*
X92731186Y-48625271D01*
X92689099Y-48764010D01*
X92650801Y-48822449D01*
X92586989Y-48850905D01*
X92517922Y-48840344D01*
X92465529Y-48794119D01*
X92450664Y-48760107D01*
X92393433Y-48546516D01*
X92393429Y-48546507D01*
X92293600Y-48332422D01*
X92293599Y-48332420D01*
X92158113Y-48138926D01*
X92158108Y-48138920D01*
X91991082Y-47971894D01*
X91797578Y-47836399D01*
X91583492Y-47736570D01*
X91583486Y-47736567D01*
X91370000Y-47679364D01*
X91370000Y-48574498D01*
X91262315Y-48525320D01*
X91155763Y-48510000D01*
X91084237Y-48510000D01*
X90977685Y-48525320D01*
X90870000Y-48574498D01*
X90870000Y-47679364D01*
X90869999Y-47679364D01*
X90656513Y-47736567D01*
X90656507Y-47736570D01*
X90442422Y-47836399D01*
X90442420Y-47836400D01*
X90248926Y-47971886D01*
X90248920Y-47971891D01*
X90081891Y-48138920D01*
X90081886Y-48138926D01*
X89946400Y-48332420D01*
X89946399Y-48332422D01*
X89846570Y-48546507D01*
X89846567Y-48546513D01*
X89789335Y-48760108D01*
X89752970Y-48819768D01*
X89690123Y-48850297D01*
X89620747Y-48842002D01*
X89566869Y-48797517D01*
X89550900Y-48764013D01*
X89508814Y-48625273D01*
X89508811Y-48625269D01*
X89508811Y-48625266D01*
X89415913Y-48451467D01*
X89415909Y-48451460D01*
X89290883Y-48299116D01*
X89138539Y-48174090D01*
X89138532Y-48174086D01*
X88964733Y-48081188D01*
X88964727Y-48081186D01*
X88784683Y-48026570D01*
X88776129Y-48023975D01*
X88580000Y-48004659D01*
X88383870Y-48023975D01*
X88195266Y-48081188D01*
X88021467Y-48174086D01*
X88021460Y-48174090D01*
X87869116Y-48299116D01*
X87744090Y-48451460D01*
X87744086Y-48451467D01*
X87651188Y-48625266D01*
X87593975Y-48813870D01*
X87574659Y-49010000D01*
X87593975Y-49206129D01*
X87651188Y-49394733D01*
X87744086Y-49568532D01*
X87744090Y-49568539D01*
X87869116Y-49720883D01*
X88021460Y-49845909D01*
X88021467Y-49845913D01*
X88195266Y-49938811D01*
X88195269Y-49938811D01*
X88195273Y-49938814D01*
X88383868Y-49996024D01*
X88580000Y-50015341D01*
X88776132Y-49996024D01*
X88964727Y-49938814D01*
X89002317Y-49918722D01*
X89072736Y-49881082D01*
X89138538Y-49845910D01*
X89290883Y-49720883D01*
X89415910Y-49568538D01*
X89508814Y-49394727D01*
X89550900Y-49255988D01*
X89589197Y-49197551D01*
X89653009Y-49169095D01*
X89722076Y-49179655D01*
X89774470Y-49225879D01*
X89789335Y-49259891D01*
X89846567Y-49473486D01*
X89846570Y-49473492D01*
X89946399Y-49687578D01*
X90081894Y-49881082D01*
X90248917Y-50048105D01*
X90442421Y-50183600D01*
X90656507Y-50283429D01*
X90656516Y-50283433D01*
X90870000Y-50340634D01*
X90870000Y-49445501D01*
X90977685Y-49494680D01*
X91084237Y-49510000D01*
X91155763Y-49510000D01*
X91262315Y-49494680D01*
X91370000Y-49445501D01*
X91370000Y-50340633D01*
X91583483Y-50283433D01*
X91583492Y-50283430D01*
X91627170Y-50263062D01*
X91696248Y-50252569D01*
X91760032Y-50281087D01*
X91798273Y-50339563D01*
X91798828Y-50409431D01*
X91767258Y-50463124D01*
X90692203Y-51538181D01*
X90630880Y-51571666D01*
X90604522Y-51574500D01*
X83736946Y-51574500D01*
X83669907Y-51554815D01*
X83624152Y-51502011D01*
X83618286Y-51486496D01*
X83608813Y-51455271D01*
X83515913Y-51281467D01*
X83515909Y-51281460D01*
X83390883Y-51129116D01*
X83238539Y-51004090D01*
X83238532Y-51004086D01*
X83064728Y-50911186D01*
X82925989Y-50869099D01*
X82867551Y-50830801D01*
X82839094Y-50766989D01*
X82849655Y-50697922D01*
X82895880Y-50645529D01*
X82929892Y-50630664D01*
X83143483Y-50573433D01*
X83143492Y-50573429D01*
X83357578Y-50473600D01*
X83551082Y-50338105D01*
X83718105Y-50171082D01*
X83853600Y-49977578D01*
X83953429Y-49763492D01*
X83953432Y-49763486D01*
X84010636Y-49550000D01*
X83113686Y-49550000D01*
X83139493Y-49509844D01*
X83180000Y-49371889D01*
X83180000Y-49228111D01*
X83139493Y-49090156D01*
X83113686Y-49050000D01*
X84010636Y-49050000D01*
X84010635Y-49049999D01*
X83953432Y-48836513D01*
X83953429Y-48836507D01*
X83853600Y-48622422D01*
X83853599Y-48622420D01*
X83718113Y-48428926D01*
X83718108Y-48428920D01*
X83551082Y-48261894D01*
X83357578Y-48126399D01*
X83143492Y-48026570D01*
X83143486Y-48026567D01*
X82930000Y-47969364D01*
X82930000Y-48864498D01*
X82822315Y-48815320D01*
X82715763Y-48800000D01*
X82644237Y-48800000D01*
X82537685Y-48815320D01*
X82430000Y-48864498D01*
X82430000Y-47969364D01*
X82429999Y-47969364D01*
X82216513Y-48026567D01*
X82216507Y-48026570D01*
X82002422Y-48126399D01*
X82002420Y-48126400D01*
X81808926Y-48261886D01*
X81808920Y-48261891D01*
X81641891Y-48428920D01*
X81641886Y-48428926D01*
X81506400Y-48622420D01*
X81506399Y-48622422D01*
X81406570Y-48836507D01*
X81406567Y-48836513D01*
X81349335Y-49050108D01*
X81312970Y-49109768D01*
X81250123Y-49140297D01*
X81180747Y-49132002D01*
X81126869Y-49087517D01*
X81110900Y-49054013D01*
X81068814Y-48915273D01*
X81068811Y-48915269D01*
X81068811Y-48915266D01*
X80975913Y-48741467D01*
X80975909Y-48741460D01*
X80850883Y-48589116D01*
X80698539Y-48464090D01*
X80698532Y-48464086D01*
X80524733Y-48371188D01*
X80524727Y-48371186D01*
X80336132Y-48313976D01*
X80336129Y-48313975D01*
X80140000Y-48294659D01*
X79943870Y-48313975D01*
X79755266Y-48371188D01*
X79581467Y-48464086D01*
X79581460Y-48464090D01*
X79429116Y-48589116D01*
X79304090Y-48741460D01*
X79304086Y-48741467D01*
X79211188Y-48915266D01*
X79153975Y-49103870D01*
X79134659Y-49300000D01*
X79153975Y-49496129D01*
X79158183Y-49510000D01*
X79202853Y-49657258D01*
X79211188Y-49684732D01*
X79221639Y-49704283D01*
X79235882Y-49772685D01*
X79210883Y-49837929D01*
X79199963Y-49850419D01*
X78608010Y-50442372D01*
X78589222Y-50457791D01*
X78576380Y-50466371D01*
X78576375Y-50466376D01*
X78515484Y-50557506D01*
X78513703Y-50563375D01*
X78513102Y-50569486D01*
X78494103Y-50664999D01*
X78497117Y-50680151D01*
X78499500Y-50704344D01*
X78499500Y-50715500D01*
X78479815Y-50782539D01*
X78427011Y-50828294D01*
X78375500Y-50839500D01*
X76735178Y-50839500D01*
X76691282Y-50848231D01*
X76691275Y-50848234D01*
X76641496Y-50881495D01*
X76641495Y-50881496D01*
X76608234Y-50931275D01*
X76608231Y-50931282D01*
X76599500Y-50975177D01*
X76599500Y-50975180D01*
X76599500Y-52704820D01*
X76599500Y-52704822D01*
X76599499Y-52704822D01*
X76608231Y-52748717D01*
X76608234Y-52748724D01*
X76629800Y-52781000D01*
X76641496Y-52798504D01*
X76691278Y-52831767D01*
X76691281Y-52831767D01*
X76691282Y-52831768D01*
X76735177Y-52840500D01*
X76735180Y-52840500D01*
X78116730Y-52840500D01*
X78183769Y-52860185D01*
X78204411Y-52876819D01*
X81638181Y-56310589D01*
X81671666Y-56371912D01*
X81674500Y-56398270D01*
X81674500Y-62357051D01*
X81672117Y-62381243D01*
X81669103Y-62396395D01*
X81669103Y-62396398D01*
X81673310Y-62417548D01*
X81673311Y-62417555D01*
X81690483Y-62503886D01*
X81690484Y-62503889D01*
X81690485Y-62503891D01*
X81714940Y-62540490D01*
X81751373Y-62595017D01*
X81751376Y-62595020D01*
X81764221Y-62603602D01*
X81783011Y-62619023D01*
X84282681Y-65118693D01*
X84316166Y-65180016D01*
X84319000Y-65206374D01*
X84319000Y-66415792D01*
X84316617Y-66439984D01*
X84313603Y-66455136D01*
X84313603Y-66455139D01*
X84317810Y-66476289D01*
X84317811Y-66476295D01*
X84334985Y-66562632D01*
X84338227Y-66567483D01*
X84338230Y-66567495D01*
X84338233Y-66567494D01*
X84377347Y-66626032D01*
X84395874Y-66653760D01*
X84400085Y-66656573D01*
X84408722Y-66662344D01*
X84427512Y-66677765D01*
X84600642Y-66850895D01*
X84634127Y-66912218D01*
X84635900Y-66954761D01*
X84624613Y-67040497D01*
X84624613Y-67040500D01*
X84643532Y-67184205D01*
X84644641Y-67188342D01*
X84644554Y-67191966D01*
X84644594Y-67192266D01*
X84644547Y-67192272D01*
X84642976Y-67258192D01*
X84603812Y-67316054D01*
X84541053Y-67343372D01*
X84501405Y-67348592D01*
X84501402Y-67348593D01*
X84367492Y-67404059D01*
X84252494Y-67492301D01*
X84164252Y-67607299D01*
X84108786Y-67741209D01*
X84108785Y-67741213D01*
X84089865Y-67884921D01*
X84089865Y-67884922D01*
X84108785Y-68028630D01*
X84108786Y-68028634D01*
X84164252Y-68162544D01*
X84164253Y-68162546D01*
X84164254Y-68162547D01*
X84252494Y-68277543D01*
X84367490Y-68365783D01*
X84501406Y-68421252D01*
X84628395Y-68437970D01*
X84645114Y-68440172D01*
X84645115Y-68440172D01*
X84645116Y-68440172D01*
X84660770Y-68438111D01*
X84788824Y-68421252D01*
X84922740Y-68365783D01*
X85037736Y-68277543D01*
X85090382Y-68208933D01*
X85146808Y-68167733D01*
X85188756Y-68160422D01*
X85450599Y-68160422D01*
X85517638Y-68180107D01*
X85563393Y-68232911D01*
X85573337Y-68302069D01*
X85544312Y-68365625D01*
X85538280Y-68372103D01*
X84323010Y-69587372D01*
X84304222Y-69602791D01*
X84291380Y-69611371D01*
X84291375Y-69611376D01*
X84230484Y-69702506D01*
X84228703Y-69708375D01*
X84228102Y-69714486D01*
X84209103Y-69809999D01*
X84212117Y-69825151D01*
X84214500Y-69849344D01*
X84214500Y-86296358D01*
X84194815Y-86363397D01*
X84165987Y-86394733D01*
X84097381Y-86447376D01*
X84009137Y-86562377D01*
X83953671Y-86696287D01*
X83953670Y-86696291D01*
X83934750Y-86840000D01*
X83949292Y-86950459D01*
X83953670Y-86983708D01*
X83953671Y-86983712D01*
X84009137Y-87117622D01*
X84009138Y-87117624D01*
X84009139Y-87117625D01*
X84097379Y-87232621D01*
X84212375Y-87320861D01*
X84346291Y-87376330D01*
X84473280Y-87393048D01*
X84489999Y-87395250D01*
X84490000Y-87395250D01*
X84490001Y-87395250D01*
X84504977Y-87393278D01*
X84633709Y-87376330D01*
X84767625Y-87320861D01*
X84882621Y-87232621D01*
X84970861Y-87117625D01*
X85026330Y-86983709D01*
X85045250Y-86840000D01*
X85026330Y-86696291D01*
X84970861Y-86562375D01*
X84882621Y-86447379D01*
X84882619Y-86447377D01*
X84882618Y-86447376D01*
X84814013Y-86394733D01*
X84772810Y-86338305D01*
X84765500Y-86296358D01*
X84765500Y-69975477D01*
X84785185Y-69908438D01*
X84801814Y-69887801D01*
X87140396Y-67549218D01*
X87201717Y-67515735D01*
X87244261Y-67513962D01*
X87329999Y-67525250D01*
X87330000Y-67525250D01*
X87330001Y-67525250D01*
X87353683Y-67522132D01*
X87473709Y-67506330D01*
X87607625Y-67450861D01*
X87722621Y-67362621D01*
X87810861Y-67247625D01*
X87866330Y-67113709D01*
X87885250Y-66970000D01*
X87866330Y-66826291D01*
X87810861Y-66692375D01*
X87722621Y-66577379D01*
X87607625Y-66489139D01*
X87607624Y-66489138D01*
X87607622Y-66489137D01*
X87473712Y-66433671D01*
X87473710Y-66433670D01*
X87473709Y-66433670D01*
X87393044Y-66423050D01*
X87330001Y-66414750D01*
X87329999Y-66414750D01*
X87186291Y-66433670D01*
X87186287Y-66433671D01*
X87052376Y-66489138D01*
X87052374Y-66489139D01*
X86969486Y-66552742D01*
X86904317Y-66577936D01*
X86835872Y-66563898D01*
X86785883Y-66515084D01*
X86770000Y-66454366D01*
X86770000Y-65707448D01*
X86772383Y-65683255D01*
X86775397Y-65668103D01*
X86775397Y-65668101D01*
X86754016Y-65560611D01*
X86743617Y-65545048D01*
X86708494Y-65492482D01*
X86708492Y-65492480D01*
X86693124Y-65469480D01*
X86693121Y-65469478D01*
X86693121Y-65469477D01*
X86680275Y-65460894D01*
X86661485Y-65445473D01*
X83161819Y-61945807D01*
X83128334Y-61884484D01*
X83125500Y-61858126D01*
X83125500Y-55899344D01*
X83127883Y-55875151D01*
X83130897Y-55859999D01*
X83126225Y-55836516D01*
X83112212Y-55766065D01*
X83109515Y-55752505D01*
X83109513Y-55752503D01*
X83109513Y-55752501D01*
X83048624Y-55661375D01*
X83035775Y-55652790D01*
X83016985Y-55637369D01*
X80451819Y-53072203D01*
X80418334Y-53010880D01*
X80415500Y-52984522D01*
X80415500Y-52893911D01*
X80435185Y-52826872D01*
X80487989Y-52781117D01*
X80503486Y-52775257D01*
X80524727Y-52768814D01*
X80698538Y-52675910D01*
X80850883Y-52550883D01*
X80975910Y-52398538D01*
X81068814Y-52224727D01*
X81126024Y-52036132D01*
X81145341Y-51840000D01*
X81126024Y-51643868D01*
X81068814Y-51455273D01*
X81068811Y-51455269D01*
X81068811Y-51455266D01*
X80975913Y-51281467D01*
X80975909Y-51281460D01*
X80850883Y-51129116D01*
X80698539Y-51004090D01*
X80698532Y-51004086D01*
X80524733Y-50911188D01*
X80524727Y-50911186D01*
X80336132Y-50853976D01*
X80336129Y-50853975D01*
X80140000Y-50834659D01*
X79943870Y-50853975D01*
X79755266Y-50911188D01*
X79581467Y-51004086D01*
X79581460Y-51004090D01*
X79429116Y-51129116D01*
X79304090Y-51281460D01*
X79304088Y-51281464D01*
X79283858Y-51319312D01*
X79234895Y-51369156D01*
X79166757Y-51384616D01*
X79101078Y-51360784D01*
X79058709Y-51305226D01*
X79050500Y-51260858D01*
X79050500Y-50830477D01*
X79070185Y-50763438D01*
X79086815Y-50742800D01*
X79589580Y-50240034D01*
X79650901Y-50206551D01*
X79720592Y-50211535D01*
X79735712Y-50218359D01*
X79755267Y-50228811D01*
X79755273Y-50228814D01*
X79943868Y-50286024D01*
X80140000Y-50305341D01*
X80336132Y-50286024D01*
X80524727Y-50228814D01*
X80698538Y-50135910D01*
X80850883Y-50010883D01*
X80975910Y-49858538D01*
X81058361Y-49704283D01*
X81068812Y-49684731D01*
X81068812Y-49684730D01*
X81068814Y-49684727D01*
X81110900Y-49545988D01*
X81149197Y-49487551D01*
X81213009Y-49459095D01*
X81282076Y-49469655D01*
X81334470Y-49515879D01*
X81349335Y-49549891D01*
X81406567Y-49763486D01*
X81406570Y-49763492D01*
X81506399Y-49977578D01*
X81641894Y-50171082D01*
X81808917Y-50338105D01*
X82002421Y-50473600D01*
X82216507Y-50573429D01*
X82216516Y-50573433D01*
X82430107Y-50630664D01*
X82489768Y-50667029D01*
X82520297Y-50729876D01*
X82512002Y-50799251D01*
X82467517Y-50853129D01*
X82434010Y-50869099D01*
X82295271Y-50911186D01*
X82121467Y-51004086D01*
X82121460Y-51004090D01*
X81969116Y-51129116D01*
X81844090Y-51281460D01*
X81844086Y-51281467D01*
X81751188Y-51455266D01*
X81693975Y-51643870D01*
X81674659Y-51840000D01*
X81693975Y-52036129D01*
X81693976Y-52036132D01*
X81751148Y-52224603D01*
X81751188Y-52224733D01*
X81844086Y-52398532D01*
X81844090Y-52398539D01*
X81969116Y-52550883D01*
X82121460Y-52675909D01*
X82121467Y-52675913D01*
X82295266Y-52768811D01*
X82295269Y-52768811D01*
X82295273Y-52768814D01*
X82483868Y-52826024D01*
X82680000Y-52845341D01*
X82876132Y-52826024D01*
X83064727Y-52768814D01*
X83064735Y-52768810D01*
X83183892Y-52705119D01*
X83238538Y-52675910D01*
X83390883Y-52550883D01*
X83515910Y-52398538D01*
X83608814Y-52224727D01*
X83612219Y-52213503D01*
X83650518Y-52155065D01*
X83714330Y-52126609D01*
X83730879Y-52125500D01*
X90730656Y-52125500D01*
X90754846Y-52127882D01*
X90770000Y-52130897D01*
X90797132Y-52125500D01*
X90797133Y-52125500D01*
X90877495Y-52109515D01*
X90929180Y-52074980D01*
X90945622Y-52063994D01*
X90945622Y-52063993D01*
X90959051Y-52055021D01*
X90959053Y-52055018D01*
X90968624Y-52048624D01*
X90977208Y-52035775D01*
X90992624Y-52016990D01*
X93076997Y-49932617D01*
X93138318Y-49899134D01*
X93208010Y-49904118D01*
X93223124Y-49910940D01*
X93275273Y-49938814D01*
X93463868Y-49996024D01*
X93660000Y-50015341D01*
X93856132Y-49996024D01*
X94044727Y-49938814D01*
X94064283Y-49928360D01*
X94132684Y-49914116D01*
X94197929Y-49939114D01*
X94210420Y-49950036D01*
X94646844Y-50386460D01*
X94680329Y-50447783D01*
X94675345Y-50517475D01*
X94633473Y-50573408D01*
X94606616Y-50588702D01*
X94472777Y-50644139D01*
X94357780Y-50732380D01*
X94269538Y-50847378D01*
X94214072Y-50981288D01*
X94214071Y-50981292D01*
X94204336Y-51055239D01*
X94195151Y-51125001D01*
X94204013Y-51192317D01*
X94214071Y-51268709D01*
X94214072Y-51268713D01*
X94269538Y-51402623D01*
X94269539Y-51402625D01*
X94269540Y-51402626D01*
X94292011Y-51431910D01*
X94317205Y-51497077D01*
X94303167Y-51565522D01*
X94281316Y-51595077D01*
X93688111Y-52188284D01*
X93626788Y-52221769D01*
X93600430Y-52224603D01*
X93318696Y-52224603D01*
X93251657Y-52204918D01*
X93205902Y-52152114D01*
X93195958Y-52082956D01*
X93204135Y-52053151D01*
X93211184Y-52036132D01*
X93216330Y-52023709D01*
X93235250Y-51880000D01*
X93216330Y-51736291D01*
X93160861Y-51602375D01*
X93072621Y-51487379D01*
X92957625Y-51399139D01*
X92957624Y-51399138D01*
X92957622Y-51399137D01*
X92823712Y-51343671D01*
X92823710Y-51343670D01*
X92823709Y-51343670D01*
X92751854Y-51334210D01*
X92680001Y-51324750D01*
X92679999Y-51324750D01*
X92536291Y-51343670D01*
X92536287Y-51343671D01*
X92402377Y-51399137D01*
X92287379Y-51487379D01*
X92199137Y-51602377D01*
X92143671Y-51736287D01*
X92143670Y-51736291D01*
X92124750Y-51879999D01*
X92124750Y-51880000D01*
X92143670Y-52023708D01*
X92143671Y-52023712D01*
X92199138Y-52157623D01*
X92199139Y-52157625D01*
X92222910Y-52188604D01*
X92248104Y-52253773D01*
X92234066Y-52322218D01*
X92212215Y-52351771D01*
X83953010Y-60610976D01*
X83934222Y-60626395D01*
X83921377Y-60634977D01*
X83906006Y-60657980D01*
X83906006Y-60657982D01*
X83894283Y-60675527D01*
X83860485Y-60726109D01*
X83853647Y-60760485D01*
X83842185Y-60818111D01*
X83839103Y-60833604D01*
X83841105Y-60843671D01*
X83842117Y-60848755D01*
X83844500Y-60872948D01*
X83844500Y-61752356D01*
X83842117Y-61776548D01*
X83839103Y-61791700D01*
X83839103Y-61791703D01*
X83843310Y-61812853D01*
X83843311Y-61812860D01*
X83860483Y-61899194D01*
X83860484Y-61899195D01*
X83884576Y-61935251D01*
X83884575Y-61935251D01*
X83884579Y-61935255D01*
X83894752Y-61950482D01*
X83894753Y-61950482D01*
X83894755Y-61950485D01*
X83921376Y-61990325D01*
X83934222Y-61998908D01*
X83953012Y-62014329D01*
X85185669Y-63246986D01*
X85201089Y-63265775D01*
X85209675Y-63278624D01*
X85232675Y-63293992D01*
X85232677Y-63293994D01*
X85239850Y-63298787D01*
X85239854Y-63298791D01*
X85239855Y-63298790D01*
X85300804Y-63339515D01*
X85300807Y-63339515D01*
X85300808Y-63339516D01*
X85387131Y-63356687D01*
X85387138Y-63356687D01*
X85408299Y-63360897D01*
X85423452Y-63357882D01*
X85447643Y-63355500D01*
X89729217Y-63355500D01*
X89796256Y-63375185D01*
X89816898Y-63391819D01*
X89947065Y-63521986D01*
X89962485Y-63540775D01*
X89971071Y-63553624D01*
X89994071Y-63568992D01*
X89994073Y-63568994D01*
X90000015Y-63572964D01*
X90044820Y-63626575D01*
X90054064Y-63659880D01*
X90058288Y-63691959D01*
X90067630Y-63762921D01*
X90067795Y-63764170D01*
X90067796Y-63764174D01*
X90104027Y-63851645D01*
X90111496Y-63921115D01*
X90080220Y-63983594D01*
X90036919Y-64013658D01*
X89940004Y-64053801D01*
X89825007Y-64142042D01*
X89736765Y-64257040D01*
X89681299Y-64390950D01*
X89681298Y-64390954D01*
X89662378Y-64534663D01*
X89678813Y-64659500D01*
X89681298Y-64678371D01*
X89681299Y-64678375D01*
X89736765Y-64812284D01*
X89737261Y-64813143D01*
X89737459Y-64813959D01*
X89739877Y-64819797D01*
X89738966Y-64820173D01*
X89753735Y-64881042D01*
X89730884Y-64947070D01*
X89717556Y-64962826D01*
X88443010Y-66237372D01*
X88424222Y-66252791D01*
X88411380Y-66261371D01*
X88411375Y-66261376D01*
X88350484Y-66352506D01*
X88348703Y-66358375D01*
X88348102Y-66364486D01*
X88330071Y-66455136D01*
X88329103Y-66460000D01*
X88329357Y-66461279D01*
X88332117Y-66475151D01*
X88334500Y-66499344D01*
X88334500Y-89726341D01*
X88332117Y-89750533D01*
X88329103Y-89765685D01*
X88329103Y-89765688D01*
X88333310Y-89786838D01*
X88333311Y-89786845D01*
X88350483Y-89873176D01*
X88350484Y-89873179D01*
X88350485Y-89873181D01*
X88374940Y-89909780D01*
X88411373Y-89964307D01*
X88411376Y-89964310D01*
X88424221Y-89972892D01*
X88443011Y-89988313D01*
X94286019Y-95831321D01*
X94319504Y-95892644D01*
X94314520Y-95962336D01*
X94290279Y-96000054D01*
X94290771Y-96000432D01*
X94286248Y-96006325D01*
X94286019Y-96006683D01*
X94285827Y-96006874D01*
X94197581Y-96121877D01*
X94142115Y-96255787D01*
X94142114Y-96255791D01*
X94123605Y-96396382D01*
X94123194Y-96399500D01*
X94140413Y-96530292D01*
X94142114Y-96543208D01*
X94142115Y-96543212D01*
X94197581Y-96677122D01*
X94197582Y-96677124D01*
X94197583Y-96677125D01*
X94285823Y-96792121D01*
X94400819Y-96880361D01*
X94534735Y-96935830D01*
X94659083Y-96952201D01*
X94678443Y-96954750D01*
X94678444Y-96954750D01*
X94678445Y-96954750D01*
X94703909Y-96951397D01*
X94810407Y-96937376D01*
X94879441Y-96948141D01*
X94931697Y-96994521D01*
X94950592Y-97060315D01*
X94950592Y-98066037D01*
X94948209Y-98090229D01*
X94945195Y-98105381D01*
X94945195Y-98105384D01*
X94949402Y-98126534D01*
X94949403Y-98126541D01*
X94966575Y-98212872D01*
X94966576Y-98212875D01*
X94966577Y-98212877D01*
X94983352Y-98237982D01*
X95027465Y-98304003D01*
X95027468Y-98304006D01*
X95040313Y-98312588D01*
X95059103Y-98328009D01*
X95388181Y-98657087D01*
X95421666Y-98718410D01*
X95424500Y-98744768D01*
X95424500Y-101145522D01*
X95404815Y-101212561D01*
X95352011Y-101258316D01*
X95282853Y-101268260D01*
X95219297Y-101239235D01*
X95212819Y-101233203D01*
X91698564Y-97718948D01*
X91665079Y-97657625D01*
X91670063Y-97587933D01*
X91671663Y-97583866D01*
X91711152Y-97488531D01*
X91730072Y-97344822D01*
X91711152Y-97201113D01*
X91655683Y-97067197D01*
X91567443Y-96952201D01*
X91452447Y-96863961D01*
X91452446Y-96863960D01*
X91452444Y-96863959D01*
X91318534Y-96808493D01*
X91318532Y-96808492D01*
X91318531Y-96808492D01*
X91226009Y-96796311D01*
X91174823Y-96789572D01*
X91174821Y-96789572D01*
X91031113Y-96808492D01*
X91031109Y-96808493D01*
X90897199Y-96863959D01*
X90782201Y-96952201D01*
X90693959Y-97067199D01*
X90638493Y-97201109D01*
X90638492Y-97201113D01*
X90619572Y-97344821D01*
X90619572Y-97344822D01*
X90638492Y-97488530D01*
X90638493Y-97488534D01*
X90693959Y-97622444D01*
X90693960Y-97622446D01*
X90693961Y-97622447D01*
X90782201Y-97737443D01*
X90897197Y-97825683D01*
X90964155Y-97853417D01*
X91031110Y-97881151D01*
X91031113Y-97881152D01*
X91047443Y-97883301D01*
X91111340Y-97911564D01*
X91118944Y-97918560D01*
X94988181Y-101787797D01*
X95021666Y-101849120D01*
X95024500Y-101875478D01*
X95024500Y-103806136D01*
X95004815Y-103873175D01*
X94952011Y-103918930D01*
X94916688Y-103929075D01*
X94881789Y-103933670D01*
X94747877Y-103989137D01*
X94632879Y-104077379D01*
X94544637Y-104192377D01*
X94489171Y-104326287D01*
X94489170Y-104326291D01*
X94470250Y-104470000D01*
X94488370Y-104607636D01*
X94489170Y-104613708D01*
X94489171Y-104613712D01*
X94544637Y-104747622D01*
X94544638Y-104747624D01*
X94544639Y-104747625D01*
X94632879Y-104862621D01*
X94747875Y-104950861D01*
X94881791Y-105006330D01*
X95008780Y-105023048D01*
X95025499Y-105025250D01*
X95025500Y-105025250D01*
X95025501Y-105025250D01*
X95040477Y-105023278D01*
X95169209Y-105006330D01*
X95253049Y-104971602D01*
X95322517Y-104964134D01*
X95384996Y-104995409D01*
X95420648Y-105055498D01*
X95424500Y-105086164D01*
X95424500Y-122765166D01*
X95404815Y-122832205D01*
X95352011Y-122877960D01*
X95294221Y-122889006D01*
X95129064Y-122880631D01*
X95129063Y-122880631D01*
X95129061Y-122880631D01*
X94927936Y-122911442D01*
X94927924Y-122911445D01*
X94737118Y-122982111D01*
X94737111Y-122982115D01*
X94564432Y-123089745D01*
X94564427Y-123089749D01*
X94416949Y-123229938D01*
X94416948Y-123229940D01*
X94300703Y-123396953D01*
X94300702Y-123396954D01*
X94223978Y-123575741D01*
X94179451Y-123629584D01*
X94112883Y-123650807D01*
X94045408Y-123632671D01*
X93998449Y-123580935D01*
X93990253Y-123558933D01*
X93953433Y-123421516D01*
X93953429Y-123421507D01*
X93853600Y-123207422D01*
X93853599Y-123207420D01*
X93718113Y-123013926D01*
X93718108Y-123013920D01*
X93551082Y-122846894D01*
X93357578Y-122711399D01*
X93143490Y-122611568D01*
X93143487Y-122611567D01*
X93080000Y-122594555D01*
X93080000Y-123753824D01*
X93042673Y-123695742D01*
X92939445Y-123606295D01*
X92815199Y-123549554D01*
X92713975Y-123535000D01*
X92646025Y-123535000D01*
X92544801Y-123549554D01*
X92420555Y-123606295D01*
X92317327Y-123695742D01*
X92280000Y-123753824D01*
X92280000Y-122594556D01*
X92279999Y-122594555D01*
X92216512Y-122611567D01*
X92216509Y-122611568D01*
X92002422Y-122711399D01*
X92002420Y-122711400D01*
X91808926Y-122846886D01*
X91808920Y-122846891D01*
X91641891Y-123013920D01*
X91641886Y-123013926D01*
X91506400Y-123207420D01*
X91506399Y-123207422D01*
X91406570Y-123421507D01*
X91406566Y-123421516D01*
X91367998Y-123565457D01*
X91331633Y-123625118D01*
X91268786Y-123655647D01*
X91199410Y-123647352D01*
X91145533Y-123602867D01*
X91129910Y-123570485D01*
X91104162Y-123488420D01*
X91104160Y-123488416D01*
X91104159Y-123488412D01*
X91060367Y-123409513D01*
X91005410Y-123310499D01*
X91005407Y-123310495D01*
X90872867Y-123156106D01*
X90872865Y-123156104D01*
X90711962Y-123031554D01*
X90711959Y-123031553D01*
X90711958Y-123031552D01*
X90529271Y-122941940D01*
X90332285Y-122890937D01*
X90332287Y-122890937D01*
X90196804Y-122884066D01*
X90129064Y-122880631D01*
X90129063Y-122880631D01*
X90129061Y-122880631D01*
X89927936Y-122911442D01*
X89927924Y-122911445D01*
X89737118Y-122982111D01*
X89737111Y-122982115D01*
X89564432Y-123089745D01*
X89564427Y-123089749D01*
X89416949Y-123229938D01*
X89416948Y-123229940D01*
X89300705Y-123396949D01*
X89220459Y-123583943D01*
X89179500Y-123783258D01*
X89179500Y-124185743D01*
X89194925Y-124337439D01*
X89255837Y-124531579D01*
X89255844Y-124531594D01*
X89354589Y-124709499D01*
X89354592Y-124709504D01*
X89487132Y-124863893D01*
X89487133Y-124863895D01*
X89498178Y-124872444D01*
X89539142Y-124929045D01*
X89543003Y-124998808D01*
X89508534Y-125059583D01*
X89446679Y-125092075D01*
X89422277Y-125094500D01*
X88168213Y-125094500D01*
X88101174Y-125074815D01*
X88080532Y-125058181D01*
X84526609Y-121504258D01*
X84511187Y-121485466D01*
X84508317Y-121481171D01*
X84502606Y-121472623D01*
X84502603Y-121472620D01*
X84484670Y-121460638D01*
X84484669Y-121460638D01*
X84479605Y-121457254D01*
X84479604Y-121457253D01*
X84453447Y-121439775D01*
X84453444Y-121439773D01*
X84432601Y-121425847D01*
X84411477Y-121411732D01*
X84411476Y-121411731D01*
X84411475Y-121411731D01*
X84325147Y-121394559D01*
X84325134Y-121394557D01*
X84303984Y-121390350D01*
X84303983Y-121390350D01*
X84303982Y-121390350D01*
X84288828Y-121393364D01*
X84264638Y-121395747D01*
X80158097Y-121395747D01*
X80133906Y-121393364D01*
X80118753Y-121390350D01*
X80118752Y-121390350D01*
X80118751Y-121390350D01*
X80097600Y-121394557D01*
X80097587Y-121394559D01*
X80011263Y-121411730D01*
X80011257Y-121411732D01*
X79969289Y-121439772D01*
X79969289Y-121439774D01*
X79943131Y-121457253D01*
X79943129Y-121457254D01*
X79920127Y-121472623D01*
X79911544Y-121485469D01*
X79896125Y-121504257D01*
X79452805Y-121947577D01*
X79391482Y-121981062D01*
X79321790Y-121976078D01*
X79310526Y-121971229D01*
X79169271Y-121901940D01*
X78972285Y-121850937D01*
X78972287Y-121850937D01*
X78836804Y-121844066D01*
X78769064Y-121840631D01*
X78769063Y-121840631D01*
X78769061Y-121840631D01*
X78567936Y-121871442D01*
X78567924Y-121871445D01*
X78377118Y-121942111D01*
X78377111Y-121942115D01*
X78204432Y-122049745D01*
X78204427Y-122049749D01*
X78056949Y-122189938D01*
X78056947Y-122189940D01*
X78056947Y-122189941D01*
X78040567Y-122213475D01*
X77940705Y-122356949D01*
X77860459Y-122543943D01*
X77819500Y-122743258D01*
X77819500Y-123145743D01*
X77834925Y-123297439D01*
X77895837Y-123491579D01*
X77895844Y-123491594D01*
X77994589Y-123669499D01*
X77994592Y-123669504D01*
X78127132Y-123823893D01*
X78127134Y-123823895D01*
X78288037Y-123948445D01*
X78288038Y-123948445D01*
X78288042Y-123948448D01*
X78470729Y-124038060D01*
X78667715Y-124089063D01*
X78870936Y-124099369D01*
X79072071Y-124068556D01*
X79262887Y-123997886D01*
X79435571Y-123890252D01*
X79583053Y-123750059D01*
X79699295Y-123583049D01*
X79776021Y-123404257D01*
X79820547Y-123350415D01*
X79887115Y-123329192D01*
X79954590Y-123347327D01*
X80001549Y-123399064D01*
X80009746Y-123421066D01*
X80046566Y-123558483D01*
X80046570Y-123558492D01*
X80146399Y-123772577D01*
X80146400Y-123772579D01*
X80281886Y-123966073D01*
X80281891Y-123966079D01*
X80448917Y-124133105D01*
X80642421Y-124268600D01*
X80856507Y-124368429D01*
X80856518Y-124368434D01*
X80919999Y-124385443D01*
X80920000Y-124385442D01*
X80920000Y-123226175D01*
X80957327Y-123284258D01*
X81060555Y-123373705D01*
X81184801Y-123430446D01*
X81286025Y-123445000D01*
X81353975Y-123445000D01*
X81455199Y-123430446D01*
X81579445Y-123373705D01*
X81682673Y-123284258D01*
X81720000Y-123226175D01*
X81720000Y-124385443D01*
X81783481Y-124368434D01*
X81783492Y-124368429D01*
X81997577Y-124268600D01*
X81997579Y-124268599D01*
X82191073Y-124133113D01*
X82191079Y-124133108D01*
X82358108Y-123966079D01*
X82358113Y-123966073D01*
X82493599Y-123772579D01*
X82493600Y-123772577D01*
X82593429Y-123558492D01*
X82593433Y-123558483D01*
X82632001Y-123414542D01*
X82668365Y-123354882D01*
X82731212Y-123324352D01*
X82800588Y-123332646D01*
X82854466Y-123377131D01*
X82870089Y-123409513D01*
X82895838Y-123491582D01*
X82895844Y-123491594D01*
X82994589Y-123669499D01*
X82994592Y-123669504D01*
X83127132Y-123823893D01*
X83127134Y-123823895D01*
X83288037Y-123948445D01*
X83288038Y-123948445D01*
X83288042Y-123948448D01*
X83470729Y-124038060D01*
X83667715Y-124089063D01*
X83870936Y-124099369D01*
X84072071Y-124068556D01*
X84262887Y-123997886D01*
X84435571Y-123890252D01*
X84583053Y-123750059D01*
X84699295Y-123583049D01*
X84779540Y-123396058D01*
X84820500Y-123196741D01*
X84820500Y-122876743D01*
X84840185Y-122809704D01*
X84892989Y-122763949D01*
X84962147Y-122754005D01*
X85025703Y-122783030D01*
X85032181Y-122789062D01*
X87525938Y-125282819D01*
X87559423Y-125344142D01*
X87554439Y-125413834D01*
X87512567Y-125469767D01*
X87447103Y-125494184D01*
X87438257Y-125494500D01*
X79285478Y-125494500D01*
X79218439Y-125474815D01*
X79197797Y-125458181D01*
X77356818Y-123617202D01*
X77323333Y-123555879D01*
X77320499Y-123529521D01*
X77320499Y-122213482D01*
X77319833Y-122209279D01*
X77305646Y-122119696D01*
X77248050Y-122006658D01*
X77248046Y-122006654D01*
X77248045Y-122006652D01*
X77158347Y-121916954D01*
X77158344Y-121916952D01*
X77158342Y-121916950D01*
X77081517Y-121877805D01*
X77045301Y-121859352D01*
X76951524Y-121844500D01*
X75688482Y-121844500D01*
X75607519Y-121857323D01*
X75594696Y-121859354D01*
X75481658Y-121916950D01*
X75481657Y-121916951D01*
X75481652Y-121916954D01*
X75391954Y-122006652D01*
X75391951Y-122006657D01*
X75391950Y-122006658D01*
X75387003Y-122016367D01*
X75334352Y-122119698D01*
X75319500Y-122213475D01*
X75319500Y-123726517D01*
X73290018Y-123726517D01*
X73285473Y-123642685D01*
X73285472Y-123642668D01*
X73227584Y-123289568D01*
X73227578Y-123289542D01*
X73131852Y-122944767D01*
X73131850Y-122944760D01*
X72999402Y-122612340D01*
X72999393Y-122612322D01*
X72831781Y-122296172D01*
X72630975Y-122000005D01*
X72630964Y-121999991D01*
X72503556Y-121849996D01*
X71297733Y-123055819D01*
X71134870Y-122865130D01*
X70944180Y-122702266D01*
X72152742Y-121493704D01*
X72139504Y-121481163D01*
X71854632Y-121264611D01*
X71854629Y-121264609D01*
X71548009Y-121080123D01*
X71223260Y-120929877D01*
X71223255Y-120929876D01*
X70884144Y-120815616D01*
X70534660Y-120738688D01*
X70178924Y-120700000D01*
X69821075Y-120700000D01*
X69465339Y-120738688D01*
X69115855Y-120815616D01*
X68776744Y-120929876D01*
X68776739Y-120929877D01*
X68451990Y-121080123D01*
X68145370Y-121264609D01*
X68145367Y-121264611D01*
X67860486Y-121481170D01*
X67860485Y-121481171D01*
X67847257Y-121493702D01*
X67847256Y-121493703D01*
X69055819Y-122702266D01*
X68865130Y-122865130D01*
X68702266Y-123055819D01*
X67496442Y-121849995D01*
X67496441Y-121849996D01*
X67369033Y-121999992D01*
X67227133Y-122209279D01*
X67173219Y-122253720D01*
X67103837Y-122261958D01*
X67041015Y-122231377D01*
X67004699Y-122171687D01*
X67000500Y-122139692D01*
X67000500Y-90660000D01*
X70054364Y-90660000D01*
X70111567Y-90873486D01*
X70111570Y-90873492D01*
X70211399Y-91087577D01*
X70211400Y-91087579D01*
X70346886Y-91281073D01*
X70346891Y-91281079D01*
X70513920Y-91448108D01*
X70513926Y-91448113D01*
X70707420Y-91583599D01*
X70707426Y-91583602D01*
X70899394Y-91673118D01*
X70951834Y-91719290D01*
X70970986Y-91786483D01*
X70950771Y-91853365D01*
X70897605Y-91898699D01*
X70846991Y-91909500D01*
X70753482Y-91909500D01*
X70672519Y-91922323D01*
X70659696Y-91924354D01*
X70546658Y-91981950D01*
X70546657Y-91981951D01*
X70546652Y-91981954D01*
X70456954Y-92071652D01*
X70456951Y-92071657D01*
X70399352Y-92184698D01*
X70384500Y-92278475D01*
X70384500Y-93541517D01*
X70391211Y-93583889D01*
X70399354Y-93635304D01*
X70456950Y-93748342D01*
X70456952Y-93748344D01*
X70456954Y-93748347D01*
X70546652Y-93838045D01*
X70546654Y-93838046D01*
X70546658Y-93838050D01*
X70659694Y-93895645D01*
X70659698Y-93895647D01*
X70753475Y-93910499D01*
X70753481Y-93910500D01*
X72266518Y-93910499D01*
X72360304Y-93895646D01*
X72473342Y-93838050D01*
X72563050Y-93748342D01*
X72620646Y-93635304D01*
X72625898Y-93602147D01*
X72631766Y-93565101D01*
X72661696Y-93501967D01*
X72721007Y-93465036D01*
X72754239Y-93460500D01*
X73204812Y-93460500D01*
X73271851Y-93480185D01*
X73317606Y-93532989D01*
X73327550Y-93602147D01*
X73298525Y-93665703D01*
X73244406Y-93702009D01*
X73150776Y-93733557D01*
X73150774Y-93733558D01*
X72992262Y-93828931D01*
X72992261Y-93828932D01*
X72857959Y-93956149D01*
X72754138Y-94109276D01*
X72685669Y-94281122D01*
X72655740Y-94463685D01*
X72665755Y-94648406D01*
X72665755Y-94648411D01*
X72715244Y-94826656D01*
X72715247Y-94826662D01*
X72801898Y-94990102D01*
X72921662Y-95131099D01*
X72921663Y-95131100D01*
X73068936Y-95243054D01*
X73236833Y-95320732D01*
X73236834Y-95320732D01*
X73236836Y-95320733D01*
X73291648Y-95332797D01*
X73417503Y-95360500D01*
X73417506Y-95360500D01*
X73556107Y-95360500D01*
X73556113Y-95360500D01*
X73693910Y-95345514D01*
X73869221Y-95286444D01*
X74027736Y-95191070D01*
X74162041Y-95063849D01*
X74265858Y-94910730D01*
X74287986Y-94855194D01*
X74334330Y-94738877D01*
X74334329Y-94738877D01*
X74334331Y-94738875D01*
X74364260Y-94556317D01*
X74354245Y-94371593D01*
X74304754Y-94193341D01*
X74260182Y-94109270D01*
X74218101Y-94029897D01*
X74098337Y-93888900D01*
X74093635Y-93885326D01*
X73951064Y-93776946D01*
X73783167Y-93699268D01*
X73783166Y-93699267D01*
X73778349Y-93697039D01*
X73725771Y-93651025D01*
X73706418Y-93583889D01*
X73726432Y-93516947D01*
X73779461Y-93471453D01*
X73830416Y-93460500D01*
X77920613Y-93460500D01*
X77987652Y-93480185D01*
X78008294Y-93496819D01*
X79923181Y-95411705D01*
X79956666Y-95473028D01*
X79959500Y-95499386D01*
X79959500Y-104293477D01*
X79959428Y-104297709D01*
X79957238Y-104361829D01*
X79966963Y-104401733D01*
X79969334Y-104414208D01*
X79974930Y-104454920D01*
X79982079Y-104471379D01*
X79988819Y-104491420D01*
X79993067Y-104508852D01*
X79993067Y-104508853D01*
X80013206Y-104544671D01*
X80018846Y-104556025D01*
X80030854Y-104583670D01*
X80035221Y-104593723D01*
X80046541Y-104607636D01*
X80058439Y-104625117D01*
X80067234Y-104640760D01*
X80067236Y-104640761D01*
X80096286Y-104669811D01*
X80104784Y-104679226D01*
X80130722Y-104711108D01*
X80145381Y-104721455D01*
X80161552Y-104735077D01*
X85029478Y-109603003D01*
X85040173Y-109615198D01*
X85057379Y-109637621D01*
X85079800Y-109654825D01*
X85091995Y-109665520D01*
X85953181Y-110526706D01*
X85986666Y-110588029D01*
X85989500Y-110614387D01*
X85989500Y-113438477D01*
X85989428Y-113442709D01*
X85987238Y-113506829D01*
X85996963Y-113546733D01*
X85999334Y-113559208D01*
X86004930Y-113599920D01*
X86012079Y-113616379D01*
X86018819Y-113636420D01*
X86023067Y-113653852D01*
X86023067Y-113653853D01*
X86043206Y-113689671D01*
X86048846Y-113701025D01*
X86060854Y-113728670D01*
X86065221Y-113738723D01*
X86076541Y-113752636D01*
X86088439Y-113770117D01*
X86097234Y-113785760D01*
X86097236Y-113785761D01*
X86126286Y-113814811D01*
X86134784Y-113824226D01*
X86160722Y-113856108D01*
X86175381Y-113866455D01*
X86191552Y-113880077D01*
X86849478Y-114538003D01*
X86860173Y-114550198D01*
X86877379Y-114572621D01*
X86901794Y-114591355D01*
X86906973Y-114595593D01*
X86935993Y-114617599D01*
X86936556Y-114618029D01*
X86994956Y-114662842D01*
X86997659Y-114664362D01*
X87042332Y-114681978D01*
X87062758Y-114690032D01*
X87064654Y-114690799D01*
X87126291Y-114716330D01*
X87126299Y-114716331D01*
X87129297Y-114717135D01*
X87135245Y-114719098D01*
X87138434Y-114719875D01*
X87138436Y-114719876D01*
X87138437Y-114719876D01*
X87138441Y-114719877D01*
X87171335Y-114723257D01*
X87204204Y-114726636D01*
X87207616Y-114727036D01*
X87270000Y-114735250D01*
X87270000Y-114735249D01*
X87270002Y-114735250D01*
X87278129Y-114735250D01*
X87278129Y-114735901D01*
X87280504Y-114735867D01*
X87280497Y-114735641D01*
X87288964Y-114735351D01*
X87288972Y-114735352D01*
X87350340Y-114724770D01*
X87355216Y-114724029D01*
X87413709Y-114716330D01*
X87413712Y-114716328D01*
X87421564Y-114714225D01*
X87421599Y-114714358D01*
X87437608Y-114709724D01*
X87438101Y-114709640D01*
X87490882Y-114684538D01*
X87496617Y-114681988D01*
X87547625Y-114660861D01*
X87548559Y-114660143D01*
X87570797Y-114646532D01*
X87574762Y-114644647D01*
X87615900Y-114608775D01*
X87621882Y-114603880D01*
X87662621Y-114572621D01*
X87665704Y-114568602D01*
X87682590Y-114550625D01*
X87683515Y-114549818D01*
X87688821Y-114545192D01*
X87716639Y-114502777D01*
X87721939Y-114495314D01*
X87750861Y-114457625D01*
X87754284Y-114449359D01*
X87765159Y-114428804D01*
X87771816Y-114418655D01*
X87771817Y-114418654D01*
X87786001Y-114373959D01*
X87789614Y-114364064D01*
X87806330Y-114323709D01*
X87808001Y-114311006D01*
X87812750Y-114289681D01*
X87817596Y-114274416D01*
X87819064Y-114231420D01*
X87820053Y-114219470D01*
X87825250Y-114179999D01*
X87823072Y-114163457D01*
X87822083Y-114143038D01*
X87822762Y-114123174D01*
X87813485Y-114085110D01*
X87811025Y-114071960D01*
X87806330Y-114036291D01*
X87798468Y-114017310D01*
X87792555Y-113999218D01*
X87786933Y-113976148D01*
X87786931Y-113976145D01*
X87769626Y-113945367D01*
X87763150Y-113932044D01*
X87750863Y-113902379D01*
X87750862Y-113902377D01*
X87750861Y-113902375D01*
X87744928Y-113894643D01*
X87736002Y-113883009D01*
X87726295Y-113868301D01*
X87712767Y-113844242D01*
X87712766Y-113844241D01*
X87690513Y-113821988D01*
X87679825Y-113809800D01*
X87662619Y-113787377D01*
X87640198Y-113770173D01*
X87628003Y-113759478D01*
X87126819Y-113258294D01*
X87093334Y-113196971D01*
X87090500Y-113170613D01*
X87090500Y-110346521D01*
X87090572Y-110342289D01*
X87090600Y-110341460D01*
X87092762Y-110278174D01*
X87083035Y-110238260D01*
X87080664Y-110225784D01*
X87079762Y-110219223D01*
X87075070Y-110185080D01*
X87067921Y-110168622D01*
X87061180Y-110148578D01*
X87056933Y-110131148D01*
X87036796Y-110095334D01*
X87031149Y-110083964D01*
X87014781Y-110046280D01*
X87014780Y-110046279D01*
X87003458Y-110032363D01*
X86991557Y-110014876D01*
X86982768Y-109999244D01*
X86982766Y-109999241D01*
X86953713Y-109970188D01*
X86945205Y-109960761D01*
X86919279Y-109928893D01*
X86904614Y-109918541D01*
X86888445Y-109904920D01*
X85870520Y-108886995D01*
X85859825Y-108874800D01*
X85842621Y-108852379D01*
X85842619Y-108852378D01*
X85842619Y-108852377D01*
X85820198Y-108835173D01*
X85808003Y-108824478D01*
X81096819Y-104113294D01*
X81063334Y-104051971D01*
X81060500Y-104025613D01*
X81060500Y-102335001D01*
X81665254Y-102335001D01*
X81669220Y-102370198D01*
X81670000Y-102384083D01*
X81670000Y-102632844D01*
X81676401Y-102692372D01*
X81676403Y-102692379D01*
X81726645Y-102827086D01*
X81726649Y-102827093D01*
X81812809Y-102942187D01*
X81812812Y-102942190D01*
X81927906Y-103028350D01*
X81927913Y-103028354D01*
X82062620Y-103078596D01*
X82062627Y-103078598D01*
X82122155Y-103084999D01*
X82122172Y-103085000D01*
X82370916Y-103085000D01*
X82384800Y-103085780D01*
X82419998Y-103089746D01*
X82420002Y-103089746D01*
X82455200Y-103085780D01*
X82469084Y-103085000D01*
X83170000Y-103085000D01*
X83670000Y-103085000D01*
X84370916Y-103085000D01*
X84384800Y-103085780D01*
X84419998Y-103089746D01*
X84420002Y-103089746D01*
X84455200Y-103085780D01*
X84469084Y-103085000D01*
X84717828Y-103085000D01*
X84717844Y-103084999D01*
X84777372Y-103078598D01*
X84777379Y-103078596D01*
X84912086Y-103028354D01*
X84912093Y-103028350D01*
X85027187Y-102942190D01*
X85027190Y-102942187D01*
X85113350Y-102827093D01*
X85113354Y-102827086D01*
X85163596Y-102692379D01*
X85163598Y-102692372D01*
X85169999Y-102632844D01*
X85170000Y-102632827D01*
X85170000Y-102384083D01*
X85170780Y-102370198D01*
X85174746Y-102335001D01*
X85174746Y-102334998D01*
X85170780Y-102299800D01*
X85170000Y-102285916D01*
X85170000Y-101885000D01*
X84323553Y-101885000D01*
X84420000Y-101981446D01*
X84420000Y-101981447D01*
X84685872Y-102247319D01*
X84719357Y-102308642D01*
X84714373Y-102378334D01*
X84685872Y-102422681D01*
X84123722Y-102984831D01*
X84062399Y-103018316D01*
X83992707Y-103013332D01*
X83948360Y-102984831D01*
X83920000Y-102956471D01*
X83891640Y-102984831D01*
X83830316Y-103018315D01*
X83760625Y-103013330D01*
X83716278Y-102984830D01*
X83670000Y-102938552D01*
X83670000Y-103085000D01*
X83170000Y-103085000D01*
X83170000Y-102938553D01*
X83169999Y-102938552D01*
X83123721Y-102984831D01*
X83062398Y-103018315D01*
X82992706Y-103013331D01*
X82948359Y-102984830D01*
X82920000Y-102956471D01*
X82891640Y-102984831D01*
X82830317Y-103018316D01*
X82760625Y-103013332D01*
X82716278Y-102984831D01*
X82154128Y-102422681D01*
X82123992Y-102367492D01*
X82320000Y-102367492D01*
X82358197Y-102420065D01*
X82404162Y-102435000D01*
X82435838Y-102435000D01*
X82481803Y-102420065D01*
X82520000Y-102367492D01*
X82520000Y-102335000D01*
X82773553Y-102335000D01*
X82920000Y-102481447D01*
X83033955Y-102367492D01*
X83320000Y-102367492D01*
X83358197Y-102420065D01*
X83404162Y-102435000D01*
X83435838Y-102435000D01*
X83481803Y-102420065D01*
X83520000Y-102367492D01*
X83520000Y-102335000D01*
X83773553Y-102335000D01*
X83920000Y-102481447D01*
X84033955Y-102367492D01*
X84320000Y-102367492D01*
X84358197Y-102420065D01*
X84404162Y-102435000D01*
X84435838Y-102435000D01*
X84481803Y-102420065D01*
X84520000Y-102367492D01*
X84520000Y-102302508D01*
X84481803Y-102249935D01*
X84435838Y-102235000D01*
X84404162Y-102235000D01*
X84358197Y-102249935D01*
X84320000Y-102302508D01*
X84320000Y-102367492D01*
X84033955Y-102367492D01*
X84066447Y-102335000D01*
X83920000Y-102188553D01*
X83773553Y-102335000D01*
X83520000Y-102335000D01*
X83520000Y-102302508D01*
X83481803Y-102249935D01*
X83435838Y-102235000D01*
X83404162Y-102235000D01*
X83358197Y-102249935D01*
X83320000Y-102302508D01*
X83320000Y-102367492D01*
X83033955Y-102367492D01*
X83066447Y-102335000D01*
X82920000Y-102188553D01*
X82773553Y-102335000D01*
X82520000Y-102335000D01*
X82520000Y-102302508D01*
X82481803Y-102249935D01*
X82435838Y-102235000D01*
X82404162Y-102235000D01*
X82358197Y-102249935D01*
X82320000Y-102302508D01*
X82320000Y-102367492D01*
X82123992Y-102367492D01*
X82120643Y-102361358D01*
X82125627Y-102291666D01*
X82154128Y-102247319D01*
X82420000Y-101981447D01*
X82420000Y-101981446D01*
X82516447Y-101885000D01*
X81670000Y-101885000D01*
X81670000Y-102285916D01*
X81669220Y-102299800D01*
X81665254Y-102334998D01*
X81665254Y-102335001D01*
X81060500Y-102335001D01*
X81060500Y-100935001D01*
X81665254Y-100935001D01*
X81669220Y-100970198D01*
X81670000Y-100984083D01*
X81670000Y-101385000D01*
X82516447Y-101385000D01*
X82516447Y-101384999D01*
X82154128Y-101022680D01*
X82123993Y-100967492D01*
X82320000Y-100967492D01*
X82358197Y-101020065D01*
X82404162Y-101035000D01*
X82435838Y-101035000D01*
X82481803Y-101020065D01*
X82520000Y-100967492D01*
X82520000Y-100935000D01*
X82773553Y-100935000D01*
X82920000Y-101081447D01*
X83033955Y-100967492D01*
X83320000Y-100967492D01*
X83358197Y-101020065D01*
X83404162Y-101035000D01*
X83435838Y-101035000D01*
X83481803Y-101020065D01*
X83520000Y-100967492D01*
X83520000Y-100935000D01*
X83773553Y-100935000D01*
X83920000Y-101081447D01*
X84033955Y-100967492D01*
X84320000Y-100967492D01*
X84358197Y-101020065D01*
X84404162Y-101035000D01*
X84435838Y-101035000D01*
X84481803Y-101020065D01*
X84520000Y-100967492D01*
X84520000Y-100902508D01*
X84481803Y-100849935D01*
X84435838Y-100835000D01*
X84404162Y-100835000D01*
X84358197Y-100849935D01*
X84320000Y-100902508D01*
X84320000Y-100967492D01*
X84033955Y-100967492D01*
X84066447Y-100935000D01*
X83920000Y-100788553D01*
X83773553Y-100935000D01*
X83520000Y-100935000D01*
X83520000Y-100902508D01*
X83481803Y-100849935D01*
X83435838Y-100835000D01*
X83404162Y-100835000D01*
X83358197Y-100849935D01*
X83320000Y-100902508D01*
X83320000Y-100967492D01*
X83033955Y-100967492D01*
X83066447Y-100935000D01*
X82920000Y-100788553D01*
X82773553Y-100935000D01*
X82520000Y-100935000D01*
X82520000Y-100902508D01*
X82481803Y-100849935D01*
X82435838Y-100835000D01*
X82404162Y-100835000D01*
X82358197Y-100849935D01*
X82320000Y-100902508D01*
X82320000Y-100967492D01*
X82123993Y-100967492D01*
X82120643Y-100961357D01*
X82125627Y-100891665D01*
X82154128Y-100847318D01*
X82420000Y-100581447D01*
X82716278Y-100285168D01*
X82777601Y-100251683D01*
X82847292Y-100256667D01*
X82891640Y-100285168D01*
X82920000Y-100313528D01*
X82948359Y-100285169D01*
X83009682Y-100251684D01*
X83079374Y-100256668D01*
X83123721Y-100285169D01*
X83169999Y-100331447D01*
X83170000Y-100331446D01*
X83170000Y-100331445D01*
X83670000Y-100331445D01*
X83716277Y-100285169D01*
X83777600Y-100251684D01*
X83847292Y-100256668D01*
X83891640Y-100285168D01*
X83919999Y-100313526D01*
X83948358Y-100285168D01*
X84009681Y-100251683D01*
X84079373Y-100256667D01*
X84123721Y-100285168D01*
X84685871Y-100847318D01*
X84719356Y-100908641D01*
X84714372Y-100978333D01*
X84685871Y-101022680D01*
X84323552Y-101384999D01*
X84323553Y-101385000D01*
X85170000Y-101385000D01*
X85170000Y-100984083D01*
X85170780Y-100970198D01*
X85174746Y-100935001D01*
X85174746Y-100934998D01*
X85170780Y-100899800D01*
X85170000Y-100885916D01*
X85170000Y-100637172D01*
X85169999Y-100637155D01*
X85163598Y-100577627D01*
X85163596Y-100577620D01*
X85113354Y-100442913D01*
X85113350Y-100442906D01*
X85027190Y-100327812D01*
X85027187Y-100327809D01*
X84912093Y-100241649D01*
X84912086Y-100241645D01*
X84777379Y-100191403D01*
X84777372Y-100191401D01*
X84717844Y-100185000D01*
X84469084Y-100185000D01*
X84455200Y-100184220D01*
X84420002Y-100180254D01*
X84419998Y-100180254D01*
X84384800Y-100184220D01*
X84370916Y-100185000D01*
X83670000Y-100185000D01*
X83670000Y-100331445D01*
X83170000Y-100331445D01*
X83170000Y-100185000D01*
X82469084Y-100185000D01*
X82455200Y-100184220D01*
X82420002Y-100180254D01*
X82419998Y-100180254D01*
X82384800Y-100184220D01*
X82370916Y-100185000D01*
X82122155Y-100185000D01*
X82062627Y-100191401D01*
X82062620Y-100191403D01*
X81927913Y-100241645D01*
X81927906Y-100241649D01*
X81812812Y-100327809D01*
X81812809Y-100327812D01*
X81726649Y-100442906D01*
X81726645Y-100442913D01*
X81676403Y-100577620D01*
X81676401Y-100577627D01*
X81670000Y-100637155D01*
X81670000Y-100885916D01*
X81669220Y-100899800D01*
X81665254Y-100934998D01*
X81665254Y-100935001D01*
X81060500Y-100935001D01*
X81060500Y-95231520D01*
X81060572Y-95227288D01*
X81061809Y-95191067D01*
X81062762Y-95163174D01*
X81062106Y-95160483D01*
X81053035Y-95123260D01*
X81050664Y-95110784D01*
X81045070Y-95070083D01*
X81045070Y-95070080D01*
X81037921Y-95053622D01*
X81031180Y-95033578D01*
X81026933Y-95016148D01*
X81006795Y-94980332D01*
X81001148Y-94968963D01*
X80984780Y-94931280D01*
X80973454Y-94917359D01*
X80961556Y-94899877D01*
X80952764Y-94884240D01*
X80923718Y-94855194D01*
X80915210Y-94845767D01*
X80888311Y-94812703D01*
X80861273Y-94748277D01*
X80860500Y-94734449D01*
X80860500Y-61069211D01*
X80863139Y-61043764D01*
X80865043Y-61034685D01*
X80861452Y-61005877D01*
X80860602Y-60992192D01*
X80860501Y-60990970D01*
X80860500Y-60990964D01*
X80860500Y-60990960D01*
X80857330Y-60971966D01*
X80856595Y-60966918D01*
X80854097Y-60946881D01*
X80850573Y-60918607D01*
X80848476Y-60911567D01*
X80846092Y-60904622D01*
X80846092Y-60904619D01*
X80845303Y-60903162D01*
X80822928Y-60861817D01*
X80820579Y-60857254D01*
X80799199Y-60813518D01*
X80794926Y-60807534D01*
X80790420Y-60801745D01*
X80790419Y-60801744D01*
X80790418Y-60801742D01*
X80754587Y-60768757D01*
X80750914Y-60765232D01*
X79121560Y-59135878D01*
X79088075Y-59074555D01*
X79086983Y-59048129D01*
X79085250Y-59048129D01*
X79085250Y-59040000D01*
X79085157Y-59039294D01*
X79066330Y-58896291D01*
X79016325Y-58775567D01*
X79010862Y-58762377D01*
X79010861Y-58762376D01*
X79010861Y-58762375D01*
X78922621Y-58647379D01*
X78807625Y-58559139D01*
X78807624Y-58559138D01*
X78807622Y-58559137D01*
X78673712Y-58503671D01*
X78673710Y-58503670D01*
X78673709Y-58503670D01*
X78601854Y-58494210D01*
X78530001Y-58484750D01*
X78529999Y-58484750D01*
X78386291Y-58503670D01*
X78386287Y-58503671D01*
X78252377Y-58559137D01*
X78137379Y-58647379D01*
X78049137Y-58762377D01*
X77993671Y-58896287D01*
X77993670Y-58896291D01*
X77974750Y-59040000D01*
X77990614Y-59160500D01*
X77993670Y-59183708D01*
X77993671Y-59183712D01*
X78049137Y-59317622D01*
X78049138Y-59317624D01*
X78049139Y-59317625D01*
X78137379Y-59432621D01*
X78252375Y-59520861D01*
X78386291Y-59576330D01*
X78530000Y-59595250D01*
X78538129Y-59595250D01*
X78538129Y-59599084D01*
X78589346Y-59606281D01*
X78625878Y-59631559D01*
X80123181Y-61128862D01*
X80156666Y-61190185D01*
X80159500Y-61216543D01*
X80159500Y-93791613D01*
X80139815Y-93858652D01*
X80087011Y-93904407D01*
X80017853Y-93914351D01*
X79954297Y-93885326D01*
X79947819Y-93879294D01*
X78597406Y-92528881D01*
X78594464Y-92525837D01*
X78550679Y-92478955D01*
X78515575Y-92457608D01*
X78505079Y-92450464D01*
X78472341Y-92425638D01*
X78472342Y-92425638D01*
X78455642Y-92419052D01*
X78436716Y-92409652D01*
X78421380Y-92400327D01*
X78381816Y-92389241D01*
X78369786Y-92385196D01*
X78331564Y-92370124D01*
X78331556Y-92370122D01*
X78313716Y-92368288D01*
X78292951Y-92364342D01*
X78275669Y-92359500D01*
X78275665Y-92359500D01*
X78234582Y-92359500D01*
X78221902Y-92358850D01*
X78181029Y-92354648D01*
X78181024Y-92354648D01*
X78163344Y-92357697D01*
X78142276Y-92359500D01*
X72754238Y-92359500D01*
X72687199Y-92339815D01*
X72641444Y-92287011D01*
X72631765Y-92254897D01*
X72620647Y-92184700D01*
X72620647Y-92184699D01*
X72620646Y-92184697D01*
X72620646Y-92184696D01*
X72563050Y-92071658D01*
X72563046Y-92071654D01*
X72563045Y-92071652D01*
X72473347Y-91981954D01*
X72473344Y-91981952D01*
X72473342Y-91981950D01*
X72396517Y-91942805D01*
X72360301Y-91924352D01*
X72266524Y-91909500D01*
X72173011Y-91909500D01*
X72105972Y-91889815D01*
X72060217Y-91837011D01*
X72050273Y-91767853D01*
X72079298Y-91704297D01*
X72120606Y-91673118D01*
X72312577Y-91583600D01*
X72312579Y-91583599D01*
X72506073Y-91448113D01*
X72506079Y-91448108D01*
X72673105Y-91281082D01*
X72808600Y-91087578D01*
X72908429Y-90873492D01*
X72908432Y-90873486D01*
X72965636Y-90660000D01*
X71913969Y-90660000D01*
X71946519Y-90609351D01*
X71985000Y-90478295D01*
X71985000Y-90341705D01*
X71946519Y-90210649D01*
X71913969Y-90160000D01*
X72965636Y-90160000D01*
X72965635Y-90159999D01*
X72908432Y-89946513D01*
X72908429Y-89946507D01*
X72808600Y-89732422D01*
X72808599Y-89732420D01*
X72673113Y-89538926D01*
X72673108Y-89538920D01*
X72506079Y-89371891D01*
X72506073Y-89371886D01*
X72312579Y-89236400D01*
X72312577Y-89236399D01*
X72098492Y-89136570D01*
X72098483Y-89136566D01*
X71954542Y-89097998D01*
X71894881Y-89061633D01*
X71864352Y-88998786D01*
X71872647Y-88929411D01*
X71917132Y-88875533D01*
X71949514Y-88859910D01*
X71962690Y-88855775D01*
X72031588Y-88834159D01*
X72209502Y-88735409D01*
X72363895Y-88602866D01*
X72488448Y-88441958D01*
X72578060Y-88259271D01*
X72629063Y-88062285D01*
X72639369Y-87859064D01*
X72608556Y-87657929D01*
X72537886Y-87467113D01*
X72430252Y-87294429D01*
X72290059Y-87146947D01*
X72191587Y-87078409D01*
X72123050Y-87030705D01*
X71936056Y-86950459D01*
X71736741Y-86909500D01*
X71334258Y-86909500D01*
X71334257Y-86909500D01*
X71182560Y-86924925D01*
X70988420Y-86985837D01*
X70988405Y-86985844D01*
X70810500Y-87084589D01*
X70810495Y-87084592D01*
X70656106Y-87217132D01*
X70656104Y-87217134D01*
X70531554Y-87378037D01*
X70531553Y-87378040D01*
X70441940Y-87560728D01*
X70390937Y-87757714D01*
X70380631Y-87960936D01*
X70411442Y-88162063D01*
X70411445Y-88162075D01*
X70482111Y-88352881D01*
X70482115Y-88352888D01*
X70589745Y-88525567D01*
X70589747Y-88525569D01*
X70589748Y-88525571D01*
X70729941Y-88673053D01*
X70896951Y-88789295D01*
X71001495Y-88834159D01*
X71075740Y-88866020D01*
X71129584Y-88910547D01*
X71150807Y-88977116D01*
X71132672Y-89044591D01*
X71080935Y-89091549D01*
X71058934Y-89099746D01*
X70921513Y-89136567D01*
X70921507Y-89136570D01*
X70707422Y-89236399D01*
X70707420Y-89236400D01*
X70513926Y-89371886D01*
X70513920Y-89371891D01*
X70346894Y-89538917D01*
X70211399Y-89732421D01*
X70111570Y-89946507D01*
X70111567Y-89946513D01*
X70054364Y-90159999D01*
X70054364Y-90160000D01*
X71106031Y-90160000D01*
X71073481Y-90210649D01*
X71035000Y-90341705D01*
X71035000Y-90478295D01*
X71073481Y-90609351D01*
X71106031Y-90660000D01*
X70054364Y-90660000D01*
X67000500Y-90660000D01*
X67000500Y-81183685D01*
X72610740Y-81183685D01*
X72620755Y-81368406D01*
X72620755Y-81368411D01*
X72670244Y-81546656D01*
X72670247Y-81546662D01*
X72756898Y-81710102D01*
X72819540Y-81783850D01*
X72876663Y-81851100D01*
X73023936Y-81963054D01*
X73191833Y-82040732D01*
X73191834Y-82040732D01*
X73191836Y-82040733D01*
X73246648Y-82052797D01*
X73372503Y-82080500D01*
X73372506Y-82080500D01*
X73511107Y-82080500D01*
X73511113Y-82080500D01*
X73648910Y-82065514D01*
X73824221Y-82006444D01*
X73982736Y-81911070D01*
X74117041Y-81783849D01*
X74220858Y-81630730D01*
X74289331Y-81458875D01*
X74319260Y-81276317D01*
X74309245Y-81091593D01*
X74308563Y-81089137D01*
X74259755Y-80913343D01*
X74259752Y-80913337D01*
X74173101Y-80749897D01*
X74053337Y-80608900D01*
X73974449Y-80548931D01*
X73906064Y-80496946D01*
X73738167Y-80419268D01*
X73738163Y-80419266D01*
X73557497Y-80379500D01*
X73418887Y-80379500D01*
X73418883Y-80379500D01*
X73281088Y-80394486D01*
X73105776Y-80453557D01*
X73105774Y-80453558D01*
X72947262Y-80548931D01*
X72947261Y-80548932D01*
X72812959Y-80676149D01*
X72709138Y-80829276D01*
X72640669Y-81001122D01*
X72640669Y-81001125D01*
X72611774Y-81177379D01*
X72610740Y-81183685D01*
X67000500Y-81183685D01*
X67000500Y-77380000D01*
X70009364Y-77380000D01*
X70066567Y-77593486D01*
X70066570Y-77593492D01*
X70166399Y-77807577D01*
X70166400Y-77807579D01*
X70301886Y-78001073D01*
X70301891Y-78001079D01*
X70468920Y-78168108D01*
X70468926Y-78168113D01*
X70662420Y-78303599D01*
X70662426Y-78303602D01*
X70854394Y-78393118D01*
X70906834Y-78439290D01*
X70925986Y-78506483D01*
X70905771Y-78573365D01*
X70852605Y-78618699D01*
X70801991Y-78629500D01*
X70708482Y-78629500D01*
X70627519Y-78642323D01*
X70614696Y-78644354D01*
X70501658Y-78701950D01*
X70501657Y-78701951D01*
X70501652Y-78701954D01*
X70411954Y-78791652D01*
X70411951Y-78791657D01*
X70354352Y-78904698D01*
X70339500Y-78998475D01*
X70339500Y-80261517D01*
X70350292Y-80329657D01*
X70354354Y-80355304D01*
X70411950Y-80468342D01*
X70411952Y-80468344D01*
X70411954Y-80468347D01*
X70501652Y-80558045D01*
X70501654Y-80558046D01*
X70501658Y-80558050D01*
X70614694Y-80615645D01*
X70614698Y-80615647D01*
X70708475Y-80630499D01*
X70708481Y-80630500D01*
X72221518Y-80630499D01*
X72315304Y-80615646D01*
X72428342Y-80558050D01*
X72518050Y-80468342D01*
X72575646Y-80355304D01*
X72575646Y-80355302D01*
X72575647Y-80355301D01*
X72590499Y-80261524D01*
X72590500Y-80261519D01*
X72590499Y-78998482D01*
X72575646Y-78904696D01*
X72518050Y-78791658D01*
X72518046Y-78791654D01*
X72518045Y-78791652D01*
X72428347Y-78701954D01*
X72428344Y-78701952D01*
X72428342Y-78701950D01*
X72351517Y-78662805D01*
X72315301Y-78644352D01*
X72221524Y-78629500D01*
X72128011Y-78629500D01*
X72060972Y-78609815D01*
X72015217Y-78557011D01*
X72005273Y-78487853D01*
X72034298Y-78424297D01*
X72075606Y-78393118D01*
X72267577Y-78303600D01*
X72267579Y-78303599D01*
X72461073Y-78168113D01*
X72461079Y-78168108D01*
X72628105Y-78001082D01*
X72763600Y-77807578D01*
X72863429Y-77593492D01*
X72863432Y-77593486D01*
X72920636Y-77380000D01*
X71868969Y-77380000D01*
X71901519Y-77329351D01*
X71940000Y-77198295D01*
X71940000Y-77061705D01*
X71901519Y-76930649D01*
X71868969Y-76880000D01*
X72920636Y-76880000D01*
X72920635Y-76879999D01*
X72863432Y-76666513D01*
X72863429Y-76666507D01*
X72763600Y-76452422D01*
X72763599Y-76452420D01*
X72628113Y-76258926D01*
X72628108Y-76258920D01*
X72461079Y-76091891D01*
X72461073Y-76091886D01*
X72267579Y-75956400D01*
X72267577Y-75956399D01*
X72053492Y-75856570D01*
X72053483Y-75856566D01*
X71909542Y-75817998D01*
X71849881Y-75781633D01*
X71819352Y-75718786D01*
X71827647Y-75649411D01*
X71872132Y-75595533D01*
X71904514Y-75579910D01*
X71917690Y-75575775D01*
X71986588Y-75554159D01*
X72164502Y-75455409D01*
X72318895Y-75322866D01*
X72443448Y-75161958D01*
X72533060Y-74979271D01*
X72584063Y-74782285D01*
X72594369Y-74579064D01*
X72563556Y-74377929D01*
X72492886Y-74187113D01*
X72385252Y-74014429D01*
X72245059Y-73866947D01*
X72128944Y-73786129D01*
X72078050Y-73750705D01*
X71891056Y-73670459D01*
X71691741Y-73629500D01*
X71289258Y-73629500D01*
X71289257Y-73629500D01*
X71137560Y-73644925D01*
X70943420Y-73705837D01*
X70943405Y-73705844D01*
X70765500Y-73804589D01*
X70765495Y-73804592D01*
X70611106Y-73937132D01*
X70611104Y-73937134D01*
X70486554Y-74098037D01*
X70486553Y-74098040D01*
X70396940Y-74280728D01*
X70345937Y-74477714D01*
X70335631Y-74680936D01*
X70366442Y-74882063D01*
X70366445Y-74882075D01*
X70437111Y-75072881D01*
X70437115Y-75072888D01*
X70544745Y-75245567D01*
X70544747Y-75245569D01*
X70544748Y-75245571D01*
X70684941Y-75393053D01*
X70851951Y-75509295D01*
X70956495Y-75554159D01*
X71030740Y-75586020D01*
X71084584Y-75630547D01*
X71105807Y-75697116D01*
X71087672Y-75764591D01*
X71035935Y-75811549D01*
X71013934Y-75819746D01*
X70876513Y-75856567D01*
X70876507Y-75856570D01*
X70662422Y-75956399D01*
X70662420Y-75956400D01*
X70468926Y-76091886D01*
X70468920Y-76091891D01*
X70301894Y-76258917D01*
X70166399Y-76452421D01*
X70066570Y-76666507D01*
X70066567Y-76666513D01*
X70009364Y-76879999D01*
X70009364Y-76880000D01*
X71061031Y-76880000D01*
X71028481Y-76930649D01*
X70990000Y-77061705D01*
X70990000Y-77198295D01*
X71028481Y-77329351D01*
X71061031Y-77380000D01*
X70009364Y-77380000D01*
X67000500Y-77380000D01*
X67000500Y-69713685D01*
X72595740Y-69713685D01*
X72605755Y-69898406D01*
X72605755Y-69898411D01*
X72655244Y-70076656D01*
X72655247Y-70076662D01*
X72741898Y-70240102D01*
X72804540Y-70313850D01*
X72861663Y-70381100D01*
X73008936Y-70493054D01*
X73176833Y-70570732D01*
X73176834Y-70570732D01*
X73176836Y-70570733D01*
X73229692Y-70582367D01*
X73357503Y-70610500D01*
X73357506Y-70610500D01*
X73496107Y-70610500D01*
X73496113Y-70610500D01*
X73633910Y-70595514D01*
X73809221Y-70536444D01*
X73967736Y-70441070D01*
X74095923Y-70319643D01*
X74102040Y-70313850D01*
X74120609Y-70286463D01*
X74205858Y-70160730D01*
X74274331Y-69988875D01*
X74304260Y-69806317D01*
X74294245Y-69621593D01*
X74292151Y-69614050D01*
X74244755Y-69443343D01*
X74244752Y-69443337D01*
X74158101Y-69279897D01*
X74038337Y-69138900D01*
X73959449Y-69078931D01*
X73891064Y-69026946D01*
X73723167Y-68949268D01*
X73723163Y-68949266D01*
X73542497Y-68909500D01*
X73403887Y-68909500D01*
X73403883Y-68909500D01*
X73266088Y-68924486D01*
X73090776Y-68983557D01*
X73090774Y-68983558D01*
X72932262Y-69078931D01*
X72932261Y-69078932D01*
X72797959Y-69206149D01*
X72694138Y-69359276D01*
X72625669Y-69531122D01*
X72615032Y-69596007D01*
X72596611Y-69708375D01*
X72595740Y-69713685D01*
X67000500Y-69713685D01*
X67000500Y-68791517D01*
X70324500Y-68791517D01*
X70335292Y-68859657D01*
X70339354Y-68885304D01*
X70396950Y-68998342D01*
X70396952Y-68998344D01*
X70396954Y-68998347D01*
X70486652Y-69088045D01*
X70486654Y-69088046D01*
X70486658Y-69088050D01*
X70599694Y-69145645D01*
X70599698Y-69145647D01*
X70693475Y-69160499D01*
X70693481Y-69160500D01*
X72206518Y-69160499D01*
X72300304Y-69145646D01*
X72413342Y-69088050D01*
X72503050Y-68998342D01*
X72560646Y-68885304D01*
X72560646Y-68885302D01*
X72560647Y-68885301D01*
X72575499Y-68791524D01*
X72575500Y-68791519D01*
X72575499Y-67528482D01*
X72560646Y-67434696D01*
X72503050Y-67321658D01*
X72503046Y-67321654D01*
X72503045Y-67321652D01*
X72413347Y-67231954D01*
X72413344Y-67231952D01*
X72413342Y-67231950D01*
X72327757Y-67188342D01*
X72300301Y-67174352D01*
X72206524Y-67159500D01*
X70693482Y-67159500D01*
X70612519Y-67172323D01*
X70599696Y-67174354D01*
X70486658Y-67231950D01*
X70486657Y-67231951D01*
X70486652Y-67231954D01*
X70396954Y-67321652D01*
X70396951Y-67321657D01*
X70396950Y-67321658D01*
X70383226Y-67348593D01*
X70339352Y-67434698D01*
X70324500Y-67528475D01*
X70324500Y-68791517D01*
X67000500Y-68791517D01*
X67000500Y-65710936D01*
X70320631Y-65710936D01*
X70351442Y-65912063D01*
X70351445Y-65912075D01*
X70422111Y-66102881D01*
X70422115Y-66102888D01*
X70529745Y-66275567D01*
X70529749Y-66275572D01*
X70614268Y-66364486D01*
X70669941Y-66423053D01*
X70786487Y-66504171D01*
X70836949Y-66539294D01*
X70836950Y-66539294D01*
X70836951Y-66539295D01*
X71023942Y-66619540D01*
X71223259Y-66660500D01*
X71625743Y-66660500D01*
X71777439Y-66645074D01*
X71971579Y-66584162D01*
X71971580Y-66584161D01*
X71971588Y-66584159D01*
X72149502Y-66485409D01*
X72303895Y-66352866D01*
X72428448Y-66191958D01*
X72518060Y-66009271D01*
X72569063Y-65812285D01*
X72579369Y-65609064D01*
X72548556Y-65407929D01*
X72493928Y-65260428D01*
X72477888Y-65217118D01*
X72477887Y-65217117D01*
X72477886Y-65217113D01*
X72370252Y-65044429D01*
X72230059Y-64896947D01*
X72123866Y-64823035D01*
X72063050Y-64780705D01*
X71876056Y-64700459D01*
X71676741Y-64659500D01*
X71274258Y-64659500D01*
X71274257Y-64659500D01*
X71122560Y-64674925D01*
X70928420Y-64735837D01*
X70928405Y-64735844D01*
X70750500Y-64834589D01*
X70750495Y-64834592D01*
X70596106Y-64967132D01*
X70596104Y-64967134D01*
X70471554Y-65128037D01*
X70471553Y-65128040D01*
X70381940Y-65310728D01*
X70330937Y-65507714D01*
X70320631Y-65710936D01*
X67000500Y-65710936D01*
X67000500Y-63210936D01*
X70320631Y-63210936D01*
X70351442Y-63412063D01*
X70351445Y-63412075D01*
X70422111Y-63602881D01*
X70422113Y-63602884D01*
X70422114Y-63602887D01*
X70433068Y-63620461D01*
X70529745Y-63775567D01*
X70529747Y-63775569D01*
X70529748Y-63775571D01*
X70669941Y-63923053D01*
X70778099Y-63998333D01*
X70836949Y-64039294D01*
X70836950Y-64039294D01*
X70836951Y-64039295D01*
X71023942Y-64119540D01*
X71223259Y-64160500D01*
X71625743Y-64160500D01*
X71777439Y-64145074D01*
X71971579Y-64084162D01*
X71971580Y-64084161D01*
X71971588Y-64084159D01*
X72149502Y-63985409D01*
X72303895Y-63852866D01*
X72428448Y-63691958D01*
X72518060Y-63509271D01*
X72569063Y-63312285D01*
X72579369Y-63109064D01*
X72548556Y-62907929D01*
X72477886Y-62717113D01*
X72370252Y-62544429D01*
X72255326Y-62423528D01*
X72230061Y-62396949D01*
X72230060Y-62396948D01*
X72230059Y-62396947D01*
X72099373Y-62305987D01*
X72063050Y-62280705D01*
X71876056Y-62200459D01*
X71676741Y-62159500D01*
X71274258Y-62159500D01*
X71274257Y-62159500D01*
X71122560Y-62174925D01*
X70928420Y-62235837D01*
X70928405Y-62235844D01*
X70750500Y-62334589D01*
X70750495Y-62334592D01*
X70596106Y-62467132D01*
X70596104Y-62467134D01*
X70471554Y-62628037D01*
X70471553Y-62628040D01*
X70381940Y-62810728D01*
X70330937Y-63007714D01*
X70320631Y-63210936D01*
X67000500Y-63210936D01*
X67000500Y-60710936D01*
X70320631Y-60710936D01*
X70351442Y-60912063D01*
X70351445Y-60912075D01*
X70422111Y-61102881D01*
X70422115Y-61102888D01*
X70529745Y-61275567D01*
X70529749Y-61275572D01*
X70638521Y-61390000D01*
X70669941Y-61423053D01*
X70761288Y-61486632D01*
X70836949Y-61539294D01*
X70836950Y-61539294D01*
X70836951Y-61539295D01*
X71023942Y-61619540D01*
X71223259Y-61660500D01*
X71625743Y-61660500D01*
X71777439Y-61645074D01*
X71971579Y-61584162D01*
X71971580Y-61584161D01*
X71971588Y-61584159D01*
X72149502Y-61485409D01*
X72303895Y-61352866D01*
X72428448Y-61191958D01*
X72518060Y-61009271D01*
X72569063Y-60812285D01*
X72579369Y-60609064D01*
X72548556Y-60407929D01*
X72477886Y-60217113D01*
X72370252Y-60044429D01*
X72230059Y-59896947D01*
X72131587Y-59828409D01*
X72063050Y-59780705D01*
X71876056Y-59700459D01*
X71676741Y-59659500D01*
X71274258Y-59659500D01*
X71274257Y-59659500D01*
X71122560Y-59674925D01*
X70928420Y-59735837D01*
X70928405Y-59735844D01*
X70750500Y-59834589D01*
X70750495Y-59834592D01*
X70596106Y-59967132D01*
X70596104Y-59967134D01*
X70471554Y-60128037D01*
X70471553Y-60128040D01*
X70381940Y-60310728D01*
X70330937Y-60507714D01*
X70320631Y-60710936D01*
X67000500Y-60710936D01*
X67000500Y-58210936D01*
X70320631Y-58210936D01*
X70351442Y-58412063D01*
X70351445Y-58412075D01*
X70422111Y-58602881D01*
X70422113Y-58602884D01*
X70422114Y-58602887D01*
X70449846Y-58647379D01*
X70529745Y-58775567D01*
X70529747Y-58775569D01*
X70529748Y-58775571D01*
X70669941Y-58923053D01*
X70786773Y-59004370D01*
X70836949Y-59039294D01*
X70836950Y-59039294D01*
X70836951Y-59039295D01*
X71023942Y-59119540D01*
X71223259Y-59160500D01*
X71625743Y-59160500D01*
X71777439Y-59145074D01*
X71971579Y-59084162D01*
X71971580Y-59084161D01*
X71971588Y-59084159D01*
X72149502Y-58985409D01*
X72303895Y-58852866D01*
X72428448Y-58691958D01*
X72518060Y-58509271D01*
X72569063Y-58312285D01*
X72579369Y-58109064D01*
X72548556Y-57907929D01*
X72477886Y-57717113D01*
X72370252Y-57544429D01*
X72230059Y-57396947D01*
X72107860Y-57311894D01*
X72063050Y-57280705D01*
X71876056Y-57200459D01*
X71676741Y-57159500D01*
X71274258Y-57159500D01*
X71274257Y-57159500D01*
X71122560Y-57174925D01*
X70928420Y-57235837D01*
X70928405Y-57235844D01*
X70750500Y-57334589D01*
X70750495Y-57334592D01*
X70596106Y-57467132D01*
X70596104Y-57467134D01*
X70471554Y-57628037D01*
X70471553Y-57628040D01*
X70381940Y-57810728D01*
X70330937Y-58007714D01*
X70320631Y-58210936D01*
X67000500Y-58210936D01*
X67000500Y-51860307D01*
X67020185Y-51793268D01*
X67072989Y-51747513D01*
X67142147Y-51737569D01*
X67205703Y-51766594D01*
X67227134Y-51790720D01*
X67369033Y-52000006D01*
X67369035Y-52000008D01*
X67496441Y-52150002D01*
X67496442Y-52150002D01*
X68702265Y-50944179D01*
X68865130Y-51134870D01*
X69055819Y-51297733D01*
X67847257Y-52506294D01*
X67860495Y-52518836D01*
X68145367Y-52735388D01*
X68145370Y-52735390D01*
X68451990Y-52919876D01*
X68776739Y-53070122D01*
X68776744Y-53070123D01*
X69115855Y-53184383D01*
X69465339Y-53261311D01*
X69821075Y-53299999D01*
X69821085Y-53300000D01*
X70178915Y-53300000D01*
X70178924Y-53299999D01*
X70534660Y-53261311D01*
X70884144Y-53184383D01*
X71223255Y-53070123D01*
X71223260Y-53070122D01*
X71548009Y-52919876D01*
X71854629Y-52735390D01*
X71854632Y-52735388D01*
X72139509Y-52518831D01*
X72152742Y-52506295D01*
X72152742Y-52506294D01*
X70944181Y-51297733D01*
X71134870Y-51134870D01*
X71297733Y-50944180D01*
X72503556Y-52150002D01*
X72630972Y-51999998D01*
X72630975Y-51999994D01*
X72831781Y-51703827D01*
X72999393Y-51387677D01*
X72999402Y-51387659D01*
X73131850Y-51055239D01*
X73131852Y-51055232D01*
X73227578Y-50710457D01*
X73227584Y-50710431D01*
X73285472Y-50357331D01*
X73285473Y-50357314D01*
X73304847Y-50000002D01*
X73304847Y-49999997D01*
X73285473Y-49642685D01*
X73285472Y-49642668D01*
X73229294Y-49300000D01*
X76594659Y-49300000D01*
X76613975Y-49496129D01*
X76618183Y-49510000D01*
X76658427Y-49642668D01*
X76671188Y-49684733D01*
X76764086Y-49858532D01*
X76764090Y-49858539D01*
X76889116Y-50010883D01*
X77041460Y-50135909D01*
X77041467Y-50135913D01*
X77215266Y-50228811D01*
X77215269Y-50228811D01*
X77215273Y-50228814D01*
X77403868Y-50286024D01*
X77600000Y-50305341D01*
X77796132Y-50286024D01*
X77984727Y-50228814D01*
X78158538Y-50135910D01*
X78310883Y-50010883D01*
X78435910Y-49858538D01*
X78518361Y-49704283D01*
X78528811Y-49684733D01*
X78528812Y-49684731D01*
X78528814Y-49684727D01*
X78586024Y-49496132D01*
X78605341Y-49300000D01*
X78586024Y-49103868D01*
X78528814Y-48915273D01*
X78528811Y-48915269D01*
X78528811Y-48915266D01*
X78435913Y-48741467D01*
X78435909Y-48741460D01*
X78310883Y-48589116D01*
X78158539Y-48464090D01*
X78158532Y-48464086D01*
X77984733Y-48371188D01*
X77984727Y-48371186D01*
X77796132Y-48313976D01*
X77796129Y-48313975D01*
X77600000Y-48294659D01*
X77403870Y-48313975D01*
X77215266Y-48371188D01*
X77041467Y-48464086D01*
X77041460Y-48464090D01*
X76889116Y-48589116D01*
X76764090Y-48741460D01*
X76764086Y-48741467D01*
X76671188Y-48915266D01*
X76613975Y-49103870D01*
X76594659Y-49300000D01*
X73229294Y-49300000D01*
X73227584Y-49289568D01*
X73227578Y-49289542D01*
X73131852Y-48944767D01*
X73131850Y-48944760D01*
X72999402Y-48612340D01*
X72999393Y-48612322D01*
X72831781Y-48296172D01*
X72630975Y-48000005D01*
X72630964Y-47999991D01*
X72503556Y-47849996D01*
X71297733Y-49055819D01*
X71134870Y-48865130D01*
X70944180Y-48702266D01*
X72152742Y-47493704D01*
X72139504Y-47481163D01*
X71854632Y-47264611D01*
X71854629Y-47264609D01*
X71798356Y-47230751D01*
X71751061Y-47179322D01*
X71739078Y-47110487D01*
X71766213Y-47046101D01*
X71823849Y-47006607D01*
X71862284Y-47000500D01*
X102137716Y-47000500D01*
X102204755Y-47020185D01*
G37*
G04 #@! TD.AperFunction*
G04 #@! TA.AperFunction,Conductor*
G36*
X106503556Y-126150002D02*
G01*
X106630969Y-126000002D01*
X106773975Y-125789083D01*
X106827889Y-125744642D01*
X106897272Y-125736404D01*
X106960094Y-125766984D01*
X106996410Y-125826674D01*
X107000609Y-125858790D01*
X106999621Y-126875620D01*
X106979871Y-126942641D01*
X106927023Y-126988344D01*
X106875621Y-126999500D01*
X105862284Y-126999500D01*
X105795245Y-126979815D01*
X105749490Y-126927011D01*
X105739546Y-126857853D01*
X105768571Y-126794297D01*
X105798356Y-126769249D01*
X105854629Y-126735390D01*
X105854632Y-126735388D01*
X106139509Y-126518831D01*
X106152742Y-126506295D01*
X106152742Y-126506294D01*
X104944181Y-125297733D01*
X105134870Y-125134870D01*
X105297733Y-124944180D01*
X106503556Y-126150002D01*
G37*
G04 #@! TD.AperFunction*
G04 #@! TA.AperFunction,Conductor*
G36*
X68204755Y-47020185D02*
G01*
X68250510Y-47072989D01*
X68260454Y-47142147D01*
X68231429Y-47205703D01*
X68201644Y-47230751D01*
X68145370Y-47264609D01*
X68145367Y-47264611D01*
X67860486Y-47481170D01*
X67860485Y-47481171D01*
X67847257Y-47493702D01*
X67847256Y-47493703D01*
X69055819Y-48702266D01*
X68865130Y-48865130D01*
X68702266Y-49055819D01*
X67496442Y-47849995D01*
X67496441Y-47849996D01*
X67369033Y-47999992D01*
X67227133Y-48209279D01*
X67173219Y-48253720D01*
X67103837Y-48261958D01*
X67041015Y-48231377D01*
X67004699Y-48171687D01*
X67000500Y-48139692D01*
X67000500Y-47124500D01*
X67020185Y-47057461D01*
X67072989Y-47011706D01*
X67124500Y-47000500D01*
X68137716Y-47000500D01*
X68204755Y-47020185D01*
G37*
G04 #@! TD.AperFunction*
G04 #@! TA.AperFunction,Conductor*
G36*
X106942054Y-47020185D02*
G01*
X106987809Y-47072989D01*
X106999013Y-47124981D01*
X106997770Y-47444594D01*
X106995088Y-48133669D01*
X106975143Y-48200631D01*
X106922161Y-48246180D01*
X106852964Y-48255854D01*
X106789522Y-48226582D01*
X106768456Y-48202773D01*
X106630975Y-48000005D01*
X106630964Y-47999991D01*
X106503556Y-47849996D01*
X105297733Y-49055818D01*
X105134870Y-48865130D01*
X104944180Y-48702266D01*
X106152742Y-47493704D01*
X106139504Y-47481163D01*
X105854632Y-47264611D01*
X105854629Y-47264609D01*
X105798356Y-47230751D01*
X105751061Y-47179322D01*
X105739078Y-47110487D01*
X105766213Y-47046101D01*
X105823849Y-47006607D01*
X105862284Y-47000500D01*
X106875015Y-47000500D01*
X106942054Y-47020185D01*
G37*
G04 #@! TD.AperFunction*
M02*
