G04 #@! TF.GenerationSoftware,KiCad,Pcbnew,7.0.8*
G04 #@! TF.CreationDate,2023-11-10T01:40:45+01:00*
G04 #@! TF.ProjectId,splitflappcb,73706c69-7466-46c6-9170-7063622e6b69,rev?*
G04 #@! TF.SameCoordinates,Original*
G04 #@! TF.FileFunction,Soldermask,Top*
G04 #@! TF.FilePolarity,Negative*
%FSLAX46Y46*%
G04 Gerber Fmt 4.6, Leading zero omitted, Abs format (unit mm)*
G04 Created by KiCad (PCBNEW 7.0.8) date 2023-11-10 01:40:45*
%MOMM*%
%LPD*%
G01*
G04 APERTURE LIST*
G04 Aperture macros list*
%AMRoundRect*
0 Rectangle with rounded corners*
0 $1 Rounding radius*
0 $2 $3 $4 $5 $6 $7 $8 $9 X,Y pos of 4 corners*
0 Add a 4 corners polygon primitive as box body*
4,1,4,$2,$3,$4,$5,$6,$7,$8,$9,$2,$3,0*
0 Add four circle primitives for the rounded corners*
1,1,$1+$1,$2,$3*
1,1,$1+$1,$4,$5*
1,1,$1+$1,$6,$7*
1,1,$1+$1,$8,$9*
0 Add four rect primitives between the rounded corners*
20,1,$1+$1,$2,$3,$4,$5,0*
20,1,$1+$1,$4,$5,$6,$7,0*
20,1,$1+$1,$6,$7,$8,$9,0*
20,1,$1+$1,$8,$9,$2,$3,0*%
G04 Aperture macros list end*
%ADD10RoundRect,0.150000X-0.150000X0.662500X-0.150000X-0.662500X0.150000X-0.662500X0.150000X0.662500X0*%
%ADD11R,3.200000X2.514000*%
%ADD12C,5.600000*%
%ADD13RoundRect,0.140000X0.170000X-0.140000X0.170000X0.140000X-0.170000X0.140000X-0.170000X-0.140000X0*%
%ADD14R,1.700000X1.700000*%
%ADD15O,1.700000X1.700000*%
%ADD16RoundRect,0.135000X0.185000X-0.135000X0.185000X0.135000X-0.185000X0.135000X-0.185000X-0.135000X0*%
%ADD17RoundRect,0.243750X-0.243750X-0.456250X0.243750X-0.456250X0.243750X0.456250X-0.243750X0.456250X0*%
%ADD18R,1.400000X1.200000*%
%ADD19RoundRect,0.140000X-0.140000X-0.170000X0.140000X-0.170000X0.140000X0.170000X-0.140000X0.170000X0*%
%ADD20RoundRect,0.150000X0.825000X0.150000X-0.825000X0.150000X-0.825000X-0.150000X0.825000X-0.150000X0*%
%ADD21RoundRect,0.140000X0.140000X0.170000X-0.140000X0.170000X-0.140000X-0.170000X0.140000X-0.170000X0*%
%ADD22C,1.200000*%
%ADD23RoundRect,0.250000X0.600000X0.725000X-0.600000X0.725000X-0.600000X-0.725000X0.600000X-0.725000X0*%
%ADD24O,1.700000X1.950000*%
%ADD25RoundRect,0.250000X-0.600000X-0.725000X0.600000X-0.725000X0.600000X0.725000X-0.600000X0.725000X0*%
%ADD26RoundRect,0.140000X-0.170000X0.140000X-0.170000X-0.140000X0.170000X-0.140000X0.170000X0.140000X0*%
%ADD27RoundRect,0.250000X1.000000X0.650000X-1.000000X0.650000X-1.000000X-0.650000X1.000000X-0.650000X0*%
%ADD28RoundRect,0.135000X-0.135000X-0.185000X0.135000X-0.185000X0.135000X0.185000X-0.135000X0.185000X0*%
%ADD29RoundRect,0.250000X0.412500X0.925000X-0.412500X0.925000X-0.412500X-0.925000X0.412500X-0.925000X0*%
%ADD30R,0.550000X1.600000*%
%ADD31R,1.600000X0.550000*%
%ADD32RoundRect,0.135000X0.135000X0.185000X-0.135000X0.185000X-0.135000X-0.185000X0.135000X-0.185000X0*%
%ADD33R,1.000000X2.500000*%
%ADD34R,1.800000X1.000000*%
%ADD35R,1.100000X1.800000*%
%ADD36RoundRect,0.250000X0.725000X-0.600000X0.725000X0.600000X-0.725000X0.600000X-0.725000X-0.600000X0*%
%ADD37O,1.950000X1.700000*%
%ADD38RoundRect,0.250000X-0.250000X-0.475000X0.250000X-0.475000X0.250000X0.475000X-0.250000X0.475000X0*%
%ADD39RoundRect,0.250000X0.250000X0.475000X-0.250000X0.475000X-0.250000X-0.475000X0.250000X-0.475000X0*%
%ADD40RoundRect,0.135000X-0.185000X0.135000X-0.185000X-0.135000X0.185000X-0.135000X0.185000X0.135000X0*%
%ADD41R,3.500000X2.350000*%
G04 APERTURE END LIST*
D10*
X85325000Y-98997500D03*
X84055000Y-98997500D03*
X82785000Y-98997500D03*
X81515000Y-98997500D03*
X81515000Y-104272500D03*
X82785000Y-104272500D03*
X84055000Y-104272500D03*
X85325000Y-104272500D03*
D11*
X83420000Y-101635000D03*
D12*
X104000000Y-50000000D03*
D13*
X88750000Y-57670000D03*
X88750000Y-56710000D03*
D14*
X98740000Y-49010000D03*
D15*
X96200000Y-49010000D03*
X93660000Y-49010000D03*
X91120000Y-49010000D03*
X88580000Y-49010000D03*
D16*
X82360000Y-69330000D03*
X82360000Y-68310000D03*
D17*
X79270000Y-68820000D03*
X81145000Y-68820000D03*
D18*
X87290000Y-56340000D03*
X85090000Y-56340000D03*
X85090000Y-58040000D03*
X87290000Y-58040000D03*
D19*
X83190000Y-75500000D03*
X84150000Y-75500000D03*
D20*
X81620000Y-67070000D03*
X81620000Y-65800000D03*
X81620000Y-64530000D03*
X81620000Y-63260000D03*
X81620000Y-61990000D03*
X81620000Y-60720000D03*
X81620000Y-59450000D03*
X81620000Y-58180000D03*
X76670000Y-58180000D03*
X76670000Y-59450000D03*
X76670000Y-60720000D03*
X76670000Y-61990000D03*
X76670000Y-63260000D03*
X76670000Y-64530000D03*
X76670000Y-65800000D03*
X76670000Y-67070000D03*
D21*
X83910000Y-105795000D03*
X82950000Y-105795000D03*
D22*
X99280000Y-122010000D03*
D23*
X97680000Y-124010000D03*
D24*
X95180000Y-124010000D03*
X92680000Y-124010000D03*
X90180000Y-124010000D03*
D12*
X70000000Y-50000000D03*
D22*
X74720000Y-124970000D03*
D25*
X76320000Y-122970000D03*
D24*
X78820000Y-122970000D03*
X81320000Y-122970000D03*
X83820000Y-122970000D03*
D26*
X86350000Y-112175000D03*
X86350000Y-113135000D03*
D27*
X91620000Y-101075000D03*
X87620000Y-101075000D03*
D28*
X88900000Y-96550000D03*
X89920000Y-96550000D03*
D14*
X98370000Y-98200000D03*
D15*
X98370000Y-100740000D03*
X98370000Y-103280000D03*
X98370000Y-105820000D03*
X98370000Y-108360000D03*
X98370000Y-110900000D03*
D29*
X84645000Y-111865000D03*
X81570000Y-111865000D03*
D30*
X90970000Y-59940000D03*
X90170000Y-59940000D03*
X89370000Y-59940000D03*
X88570000Y-59940000D03*
X87770000Y-59940000D03*
X86970000Y-59940000D03*
X86170000Y-59940000D03*
X85370000Y-59940000D03*
D31*
X83920000Y-61390000D03*
X83920000Y-62190000D03*
X83920000Y-62990000D03*
X83920000Y-63790000D03*
X83920000Y-64590000D03*
X83920000Y-65390000D03*
X83920000Y-66190000D03*
X83920000Y-66990000D03*
D30*
X85370000Y-68440000D03*
X86170000Y-68440000D03*
X86970000Y-68440000D03*
X87770000Y-68440000D03*
X88570000Y-68440000D03*
X89370000Y-68440000D03*
X90170000Y-68440000D03*
X90970000Y-68440000D03*
D31*
X92420000Y-66990000D03*
X92420000Y-66190000D03*
X92420000Y-65390000D03*
X92420000Y-64590000D03*
X92420000Y-63790000D03*
X92420000Y-62990000D03*
X92420000Y-62190000D03*
X92420000Y-61390000D03*
D27*
X87117500Y-115340000D03*
X83117500Y-115340000D03*
D32*
X81230000Y-97465000D03*
X80210000Y-97465000D03*
D33*
X98500000Y-79400000D03*
X96500000Y-79400000D03*
X94500000Y-79400000D03*
X92500000Y-79400000D03*
X90500000Y-79400000D03*
X88500000Y-79400000D03*
X86500000Y-79400000D03*
X84500000Y-79400000D03*
D34*
X83000000Y-82000000D03*
X83000000Y-84000000D03*
X83000000Y-86000000D03*
X83000000Y-88000000D03*
X83000000Y-90000000D03*
X83000000Y-92000000D03*
D33*
X84500000Y-94600000D03*
X86500000Y-94600000D03*
X88500000Y-94600000D03*
X90500000Y-94600000D03*
X92500000Y-94600000D03*
X94500000Y-94600000D03*
X96500000Y-94600000D03*
X98500000Y-94600000D03*
D14*
X77600000Y-51840000D03*
D15*
X77600000Y-49300000D03*
X80140000Y-51840000D03*
X80140000Y-49300000D03*
X82680000Y-51840000D03*
X82680000Y-49300000D03*
D28*
X93400000Y-76530000D03*
X94420000Y-76530000D03*
D12*
X104000000Y-124000000D03*
D14*
X95560000Y-55810000D03*
D15*
X98100000Y-55810000D03*
X95560000Y-58350000D03*
X98100000Y-58350000D03*
X95560000Y-60890000D03*
X98100000Y-60890000D03*
X95560000Y-63430000D03*
X98100000Y-63430000D03*
X95560000Y-65970000D03*
X98100000Y-65970000D03*
X95560000Y-68510000D03*
X98100000Y-68510000D03*
X95560000Y-71050000D03*
X98100000Y-71050000D03*
X95560000Y-73590000D03*
X98100000Y-73590000D03*
D35*
X91920000Y-70620000D03*
X91920000Y-76820000D03*
X88220000Y-70620000D03*
X88220000Y-76820000D03*
D12*
X70000000Y-124000000D03*
D21*
X98840000Y-77240000D03*
X97880000Y-77240000D03*
X87510000Y-98865000D03*
X86550000Y-98865000D03*
D22*
X73450000Y-69760000D03*
D36*
X71450000Y-68160000D03*
D37*
X71450000Y-65660000D03*
X71450000Y-63160000D03*
X71450000Y-60660000D03*
X71450000Y-58160000D03*
D26*
X83620000Y-56710000D03*
X83620000Y-57670000D03*
D22*
X73465000Y-81230000D03*
D36*
X71465000Y-79630000D03*
D37*
X71465000Y-77130000D03*
X71465000Y-74630000D03*
D28*
X93400000Y-77480000D03*
X94420000Y-77480000D03*
D32*
X91790000Y-96550000D03*
X90770000Y-96550000D03*
D19*
X84990000Y-71920000D03*
X85950000Y-71920000D03*
D38*
X84530000Y-70470000D03*
X86430000Y-70470000D03*
X82680000Y-76930000D03*
X84580000Y-76930000D03*
D22*
X73510000Y-94510000D03*
D36*
X71510000Y-92910000D03*
D37*
X71510000Y-90410000D03*
X71510000Y-87910000D03*
D39*
X84380000Y-107245000D03*
X82480000Y-107245000D03*
D40*
X80250000Y-98355000D03*
X80250000Y-99375000D03*
D41*
X89670000Y-104260000D03*
X89670000Y-110310000D03*
M02*
