G04 #@! TF.GenerationSoftware,KiCad,Pcbnew,7.0.10*
G04 #@! TF.CreationDate,2024-02-04T23:07:42+01:00*
G04 #@! TF.ProjectId,splitflappcb,73706c69-7466-46c6-9170-7063622e6b69,rev?*
G04 #@! TF.SameCoordinates,Original*
G04 #@! TF.FileFunction,Soldermask,Bot*
G04 #@! TF.FilePolarity,Negative*
%FSLAX46Y46*%
G04 Gerber Fmt 4.6, Leading zero omitted, Abs format (unit mm)*
G04 Created by KiCad (PCBNEW 7.0.10) date 2024-02-04 23:07:42*
%MOMM*%
%LPD*%
G01*
G04 APERTURE LIST*
G04 Aperture macros list*
%AMRoundRect*
0 Rectangle with rounded corners*
0 $1 Rounding radius*
0 $2 $3 $4 $5 $6 $7 $8 $9 X,Y pos of 4 corners*
0 Add a 4 corners polygon primitive as box body*
4,1,4,$2,$3,$4,$5,$6,$7,$8,$9,$2,$3,0*
0 Add four circle primitives for the rounded corners*
1,1,$1+$1,$2,$3*
1,1,$1+$1,$4,$5*
1,1,$1+$1,$6,$7*
1,1,$1+$1,$8,$9*
0 Add four rect primitives between the rounded corners*
20,1,$1+$1,$2,$3,$4,$5,0*
20,1,$1+$1,$4,$5,$6,$7,0*
20,1,$1+$1,$6,$7,$8,$9,0*
20,1,$1+$1,$8,$9,$2,$3,0*%
G04 Aperture macros list end*
%ADD10C,5.600000*%
%ADD11R,1.700000X1.700000*%
%ADD12O,1.700000X1.700000*%
%ADD13C,1.200000*%
%ADD14RoundRect,0.250000X0.600000X0.725000X-0.600000X0.725000X-0.600000X-0.725000X0.600000X-0.725000X0*%
%ADD15O,1.700000X1.950000*%
%ADD16RoundRect,0.250000X-0.600000X-0.725000X0.600000X-0.725000X0.600000X0.725000X-0.600000X0.725000X0*%
%ADD17RoundRect,0.250000X0.725000X-0.600000X0.725000X0.600000X-0.725000X0.600000X-0.725000X-0.600000X0*%
%ADD18O,1.950000X1.700000*%
G04 APERTURE END LIST*
D10*
X104000000Y-50000000D03*
D11*
X98740000Y-49010000D03*
D12*
X96200000Y-49010000D03*
X93660000Y-49010000D03*
X91120000Y-49010000D03*
X88580000Y-49010000D03*
D13*
X99280000Y-122010000D03*
D14*
X97680000Y-124010000D03*
D15*
X95180000Y-124010000D03*
X92680000Y-124010000D03*
X90180000Y-124010000D03*
D10*
X70000000Y-50000000D03*
D13*
X74720000Y-124970000D03*
D16*
X76320000Y-122970000D03*
D15*
X78820000Y-122970000D03*
X81320000Y-122970000D03*
X83820000Y-122970000D03*
D11*
X98370000Y-98200000D03*
D12*
X98370000Y-100740000D03*
X98370000Y-103280000D03*
X98370000Y-105820000D03*
X98370000Y-108360000D03*
X98370000Y-110900000D03*
D11*
X77600000Y-51840000D03*
D12*
X77600000Y-49300000D03*
X80140000Y-51840000D03*
X80140000Y-49300000D03*
X82680000Y-51840000D03*
X82680000Y-49300000D03*
D10*
X104000000Y-124000000D03*
D11*
X95560000Y-55810000D03*
D12*
X98100000Y-55810000D03*
X95560000Y-58350000D03*
X98100000Y-58350000D03*
X95560000Y-60890000D03*
X98100000Y-60890000D03*
X95560000Y-63430000D03*
X98100000Y-63430000D03*
X95560000Y-65970000D03*
X98100000Y-65970000D03*
X95560000Y-68510000D03*
X98100000Y-68510000D03*
X95560000Y-71050000D03*
X98100000Y-71050000D03*
X95560000Y-73590000D03*
X98100000Y-73590000D03*
D10*
X70000000Y-124000000D03*
D13*
X73450000Y-69760000D03*
D17*
X71450000Y-68160000D03*
D18*
X71450000Y-65660000D03*
X71450000Y-63160000D03*
X71450000Y-60660000D03*
X71450000Y-58160000D03*
D13*
X73465000Y-81230000D03*
D17*
X71465000Y-79630000D03*
D18*
X71465000Y-77130000D03*
X71465000Y-74630000D03*
D13*
X73510000Y-94510000D03*
D17*
X71510000Y-92910000D03*
D18*
X71510000Y-90410000D03*
X71510000Y-87910000D03*
M02*
